<?xml version="1.0" encoding="UTF-8"?>
<svg version="1.1" xmlns="http://www.w3.org/2000/svg" width="351" height="285">
<path d="M0 0 C3.125 1.6875 3.125 1.6875 5 3 C4.9239894 6.11643459 4.62185225 8.29796154 2.515625 10.67578125 C1.91234375 11.23652344 1.3090625 11.79726563 0.6875 12.375 C-4.8018862 17.48114363 -6.93537264 22.64154621 -8 30 C-6.96101563 30.23074219 -5.92203125 30.46148437 -4.8515625 30.69921875 C23.91133643 37.31820918 41.88176652 58.505574 57.30859375 82.5546875 C73.49083203 109.36736301 81.21589652 143.6218584 74.82250977 174.65649414 C74.02440149 177.83479129 73.06431877 180.89837137 72 184 C71.66097656 185.06605469 71.32195312 186.13210937 70.97265625 187.23046875 C65.1364244 203.949923 55.61149583 218.95425086 45 233 C44.52385254 233.63309082 44.04770508 234.26618164 43.55712891 234.91845703 C26.38021181 257.61716221 26.38021181 257.61716221 18 261 C13.30719452 261.58861649 9.13630203 260.46895961 5.25 257.8125 C-4.01155249 250.12226879 -11.91591405 240.44595405 -19.1953125 230.9140625 C-19.79085937 230.28242188 -20.38640625 229.65078125 -21 229 C-24.56148806 229 -24.81287435 229.44495191 -27.23046875 231.859375 C-27.86130371 232.47538574 -28.49213867 233.09139648 -29.14208984 233.72607422 C-29.8170752 234.39396973 -30.49206055 235.06186523 -31.1875 235.75 C-53.21010937 257.02039469 -53.21010937 257.02039469 -62.25 257.3125 C-66.99859231 257.22161785 -69.34690134 256.18674564 -73 253 C-78.49146002 247.23404157 -83.29703395 241.11064334 -87.8125 234.5625 C-88.41143066 233.69705566 -89.01036133 232.83161133 -89.62744141 231.93994141 C-106.93825688 206.70746124 -120.45683457 181.21003542 -120.3125 149.875 C-120.30686035 148.59326904 -120.3012207 147.31153809 -120.29541016 145.9909668 C-119.84865287 111.00456331 -104.50549247 78.73380451 -80 54 C-79.31421875 53.26523438 -78.6284375 52.53046875 -77.921875 51.7734375 C-70.01739583 43.45124196 -59.66085987 34.78055046 -48 33 C-46.2083077 32.9815017 -44.41581583 33.00349031 -42.625 33.0625 C-37.97651815 33.11911209 -34.36584269 32.55229962 -30 31 C-29.835 29.845 -29.67 28.69 -29.5 27.5 C-27.18862803 17.15620063 -21.2288223 4.85387984 -13 -2 C-8.33569985 -3.55476672 -4.50012317 -1.65530008 0 0 Z " fill="#382414" transform="translate(194,17)"/>
<path d="M0 0 C15.82322936 2.07291214 28.95679939 15.72269304 38.51171875 27.6953125 C42.47768174 32.85909019 45.79930483 38.33674215 49 44 C49.54503174 44.91894043 49.54503174 44.91894043 50.10107422 45.85644531 C58.9367682 60.76974031 65.77284015 78.58294184 67 96 C67.0530127 96.70141113 67.10602539 97.40282227 67.16064453 98.12548828 C68.54685984 119.29243117 63.75561882 139.74182418 53 158 C52.26749339 159.29385456 51.53573288 160.58813177 50.8046875 161.8828125 C46.11391129 170.05317981 40.79378205 177.56610209 35 185 C34.12670227 186.16240995 33.2556795 187.32653187 32.38671875 188.4921875 C31.50798026 189.66158441 30.62907763 190.83085801 29.75 192 C28.96109375 193.051875 28.1721875 194.10375 27.359375 195.1875 C24.46252677 198.64069656 22.04920388 201.48108869 17.578125 202.61328125 C13.64314689 201.67723343 11.43212154 199.03994023 8.75 196.1875 C8.17862305 195.59582031 7.60724609 195.00414062 7.01855469 194.39453125 C-15.8916911 170.3896419 -33.1185691 141.75698818 -33.16796875 107.75390625 C-33.17211288 106.8733255 -33.17625702 105.99274475 -33.18052673 105.08547974 C-33.19016144 102.2444436 -33.19019189 99.40354988 -33.1875 96.5625 C-33.18759064 95.11660995 -33.18759064 95.11660995 -33.18768311 93.64151001 C-33.17751921 82.29706744 -33.08259448 70.99811114 -32.125 59.6875 C-32.00741333 58.29736694 -32.00741333 58.29736694 -31.88745117 56.87915039 C-31.42897688 52.27902238 -30.47306306 48.39191024 -29 44 C-28.70093657 42.15905549 -28.42211251 40.31478162 -28.15625 38.46875 C-27.05569272 31.51288406 -24.87834574 25.11073737 -22.5 18.5 C-22.09652344 17.34757812 -21.69304687 16.19515625 -21.27734375 15.0078125 C-18.06545461 5.91276008 -18.06545461 5.91276008 -16 2 C-13.75 2 -13.75 2 -11 3 C-8.37527341 6.43814026 -7.18377561 10.11453568 -6.3125 14.3125 C-7.20247651 19.08601036 -9.44021152 22.13134098 -12.11328125 26.1328125 C-17.54491837 34.38710163 -19.61144201 41.27211124 -19.54833984 51.07470703 C-19.59169465 56.12612819 -20.64606815 58.30675987 -24 62 C-24.71253588 66.43355658 -24.53327109 68.2404927 -21.9375 71.9375 C-19.1039354 74.23534372 -19.1039354 74.23534372 -15.5 74.625 C-11.90674756 74.22936958 -11.90674756 74.22936958 -9.0625 72 C-6.7527027 68.64029484 -6.31830407 66.91074695 -6.56640625 62.93359375 C-7.24805393 59.89381354 -8.80232287 58.13303956 -11 56 C-11.66 55.67 -12.32 55.34 -13 55 C-14.29741331 43.14308393 -11.5281077 36.58815819 -5 27 C-4.34 27.33 -3.68 27.66 -3 28 C-2.21002563 30.83794566 -1.54018732 33.62176703 -0.9375 36.5 C-0.76412109 37.27859375 -0.59074219 38.0571875 -0.41210938 38.859375 C0.45033625 42.85107736 1.06493573 46.6764307 1.31640625 50.75390625 C1.77420465 55.29022716 3.46604281 57.34967646 6.875 60.4375 C7.75929687 61.26121094 8.64359375 62.08492187 9.5546875 62.93359375 C12.01502041 65.09188851 12.01502041 65.09188851 15 67 C15.484375 70.23046875 15.484375 70.23046875 15.75 74.1875 C16.1999016 79.12246719 16.68410009 82.54343602 20.625 85.875 C21.56666016 86.62330078 21.56666016 86.62330078 22.52734375 87.38671875 C24 89 24 89 24.31640625 91.26953125 C24.23269879 92.83968025 24.13086301 94.409006 24.0078125 95.9765625 C23.82249794 98.21227723 23.82249794 98.21227723 25.5625 100.5625 C28.92874109 102.54771911 31.15426517 102.48071685 35 102 C37.48105194 101.09764165 37.48105194 101.09764165 39 99 C39.85469115 95.64228476 40.40255396 93.19025415 39.27734375 89.86328125 C37.62710486 87.45605204 36.49252443 87.27557709 33.6875 86.625 C29.94973488 85.47122041 27.30707963 84.29265456 24.87890625 81.0390625 C23.71947654 78.34918557 23.69529447 75.91876457 23.5 73 C22.76165148 66.34996063 20.35858231 64.01975462 15.66796875 59.7734375 C7.57317504 51.75391967 6.22935144 43.59259761 4.8125 32.625 C4.55635167 30.92503272 4.29530192 29.22579658 4.02929688 27.52734375 C3.65568886 25.13363353 3.28864563 22.74134211 2.96040344 20.3409729 C2.46403032 16.7207559 1.846829 13.22034035 0.9284668 9.68115234 C0.06798817 6.26955709 -0.17472329 3.49446574 0 0 Z " fill="#CE985F" transform="translate(191,62)"/>
<path d="M0 0 C0.99 0.495 0.99 0.495 2 1 C1.05640625 1.99966797 1.05640625 1.99966797 0.09375 3.01953125 C-5.80098629 9.3670259 -11.06748879 15.86181868 -16 23 C-16.83534758 24.15537466 -17.67131582 25.31030076 -18.5078125 26.46484375 C-24.72734096 35.20916583 -28.76767448 43.79705495 -32 54 C-32.25765137 54.79100098 -32.51530273 55.58200195 -32.78076172 56.39697266 C-33.6001205 58.92625458 -34.39847796 61.46109916 -35.1875 64 C-35.4256543 64.75756592 -35.66380859 65.51513184 -35.90917969 66.2956543 C-39.85501122 79.49592731 -41.56516834 92.37991525 -41.4375 106.125 C-41.43412628 106.83888885 -41.43075256 107.55277771 -41.42727661 108.28829956 C-41.27103599 131.27803698 -36.61166826 154.99456085 -27 176 C-27.185625 175.21625 -27.37125 174.4325 -27.5625 173.625 C-28 171 -28 171 -27 169 C-26.01 169 -25.02 169 -24 169 C-23.70996094 170.06541016 -23.70996094 170.06541016 -23.4140625 171.15234375 C-23.02347656 172.53099609 -23.02347656 172.53099609 -22.625 173.9375 C-22.36976562 174.85402344 -22.11453125 175.77054688 -21.8515625 176.71484375 C-21.23339896 179.16745087 -21.23339896 179.16745087 -19 180 C-19.40624043 178.17191808 -19.81256423 176.34385465 -20.21923828 174.51586914 C-20.57835941 172.89817219 -20.93606724 171.28016095 -21.29248047 169.66186523 C-22.19169714 165.58790324 -23.10743428 161.52055244 -24.0859375 157.46484375 C-30.37541917 131.11741008 -33.3888535 99.23938771 -25.5 73.0625 C-25.23864258 72.17844482 -24.97728516 71.29438965 -24.70800781 70.38354492 C-17.24894997 45.99997926 -5.6506052 18.19427955 14 1 C14.66 1 15.32 1 16 1 C14.65680869 6.84582696 13.25723065 12.58739228 11.09765625 18.19140625 C0.930215 44.6386221 0.71042665 71.88830876 0.96640015 99.84375 C1.10293724 114.82917205 0.88798128 129.23618242 -2 144 C-2.19287598 144.99773437 -2.38575195 145.99546875 -2.58447266 147.0234375 C-3.78487699 153.12431599 -5.08235015 159.20042329 -6.41552734 165.2734375 C-7.74781267 171.48854298 -8.86871125 177.74572071 -10 184 C-7.28450846 186.30671915 -7.28450846 186.30671915 -4.8125 185.625 C-4.214375 185.41875 -3.61625 185.2125 -3 185 C-3 184.34 -3 183.68 -3 183 C-2.34 183 -1.68 183 -1 183 C-0.85304688 182.44957031 -0.70609375 181.89914063 -0.5546875 181.33203125 C2.18157963 171.18897206 5.101884 161.09770548 8 151 C11.16076138 152.58038069 12.07056101 155.75171796 13.5625 158.8125 C14.03719727 159.75706055 14.03719727 159.75706055 14.52148438 160.72070312 C16.02533008 163.76351619 17.38363123 166.64796708 18 170 C17.34 170 16.68 170 16 170 C15.7525 170.57234375 15.505 171.1446875 15.25 171.734375 C13.80683801 174.35010611 12.11783778 176.14773456 10 178.25 C9.29875 178.95640625 8.5975 179.6628125 7.875 180.390625 C6 182 6 182 4 182 C4 182.99 4 183.98 4 185 C6.31 183.02 8.62 181.04 11 179 C11 180.32 11 181.64 11 183 C11.99 183.33 12.98 183.66 14 184 C14.66 184.99 15.32 185.98 16 187 C15.34 187.66 14.68 188.32 14 189 C13.63261719 190.12921875 13.63261719 190.12921875 13.2578125 191.28125 C11.57058871 194.92816851 8.93453012 197.0260898 5.875 199.5 C5.28750977 199.98122314 4.70001953 200.46244629 4.09472656 200.95825195 C2.40920206 202.3225806 0.70926417 203.66559296 -1 205 C-1.76570313 205.60199219 -2.53140625 206.20398438 -3.3203125 206.82421875 C-7.42413632 209.7234789 -10.86248587 210.75138985 -15.91015625 210.40625 C-25.95028595 208.45452385 -33.38542398 195.43262266 -38.8125 187.5625 C-39.41143066 186.69705566 -40.01036133 185.83161133 -40.62744141 184.93994141 C-57.93825688 159.70746124 -71.45683457 134.21003542 -71.3125 102.875 C-71.30686035 101.59326904 -71.3012207 100.31153809 -71.29541016 98.9909668 C-70.87369545 65.96569472 -57.17581814 35.33322189 -35 11 C-33.68 11.33 -32.36 11.66 -31 12 C-31.33 13.98 -31.66 15.96 -32 18 C-30.68 18 -29.36 18 -28 18 C-27.505 19.485 -27.505 19.485 -27 21 C-27.66 21.99 -28.32 22.98 -29 24 C-28.34 23.34 -27.68 22.68 -27 22 C-26.5359375 21.53980469 -26.071875 21.07960938 -25.59375 20.60546875 C-24.49476029 19.49839823 -23.41224236 18.3748144 -22.34375 17.23828125 C-18.23715702 12.94897968 -13.87841849 9.18688605 -9.1875 5.5625 C-8.62417969 5.12526611 -8.06085938 4.68803223 -7.48046875 4.23754883 C-4.99271551 2.34893448 -2.9861021 0.99536737 0 0 Z " fill="#372416" transform="translate(145,64)"/>
<path d="M0 0 C2.2407573 1.80706234 2.86432007 3.06935032 3.27734375 5.90234375 C3.53225783 11.37789814 3.53225783 11.37789814 1.47265625 13.78515625 C-0.70056058 17.05362825 -0.2091851 19.57651035 0.0625 23.4375 C0.13597656 24.73558594 0.20945313 26.03367188 0.28515625 27.37109375 C1.54059863 33.74435041 6.57450499 38.25159611 11.54824829 42.24221802 C13.94805431 44.29086684 15.72278869 45.92489357 16.52606201 49.04022217 C16.69231775 51.42112732 16.67577652 53.7322026 16.5859375 56.1171875 C16.57744781 56.97434357 16.56895813 57.83149963 16.56021118 58.71463013 C16.52678564 61.43606523 16.45153295 64.15447008 16.375 66.875 C16.34488609 68.72651952 16.31751278 70.57808577 16.29296875 72.4296875 C16.22703066 76.95428174 16.12358939 81.47662825 16 86 C16.71027344 86.33773437 17.42054688 86.67546875 18.15234375 87.0234375 C19.07144531 87.46945313 19.99054688 87.91546875 20.9375 88.375 C21.85402344 88.81585938 22.77054688 89.25671875 23.71484375 89.7109375 C26 91 26 91 27 93 C27.23076923 98.53846154 27.23076923 98.53846154 26 101 C25.34 101 24.68 101 24 101 C24.33 102.32 24.66 103.64 25 105 C26.98 103.68 28.96 102.36 31 101 C31.66 101.66 32.32 102.32 33 103 C30.79463788 105.85647333 28.58516501 108.70974174 26.375 111.5625 C25.44880859 112.76229492 25.44880859 112.76229492 24.50390625 113.98632812 C23.27060341 115.57663968 22.02940847 117.1608632 20.78027344 118.73876953 C19.64559176 120.17999577 18.5316894 121.63800328 17.44628906 123.11669922 C14.92524121 126.39406143 13.4866125 127.81847714 9.5234375 129.296875 C4.74512647 128.89426786 2.6819252 126.65323944 -0.375 123.25 C-1.21853027 122.35571289 -1.21853027 122.35571289 -2.07910156 121.44335938 C-22.47855556 99.56433333 -22.47855556 99.56433333 -26 89 C-21.56391848 90.47869384 -19.55610565 93.16584152 -17 97 C-14.95163118 96.43637698 -14.95163118 96.43637698 -13 95 C-11.25895948 89.77687843 -11.78001636 83.33307133 -13 78 C-14.485 77.01 -14.485 77.01 -16 76 C-16.79439588 72.82241649 -17.0033811 70.08621802 -16.875 66.8125 C-16.71169679 63.97248402 -16.71169679 63.97248402 -18.5 62.25 C-19.2425 61.63125 -19.2425 61.63125 -20 61 C-20 60.34 -20 59.68 -20 59 C-20.87398437 58.60748047 -20.87398437 58.60748047 -21.765625 58.20703125 C-25.87369466 55.9878118 -28.7459719 53.09202346 -31 49 C-31.57834195 44.59957211 -31.42349545 40.40973038 -31 36 C-31.66 36 -32.32 36 -33 36 C-35.79691471 33.52580622 -36.31707397 31.15410046 -36.5625 27.5625 C-36.47262742 24.96903425 -36.31477256 23.46945461 -34.86328125 21.3046875 C-32.39142245 19.03395107 -30.30037665 18.04380493 -27 17.5625 C-23.81421834 18.02709316 -21.00517393 18.85517184 -18 20 C-18 20.99 -18 21.98 -18 23 C-17.34 23 -16.68 23 -16 23 C-15.67 23.66 -15.34 24.32 -15 25 C-12.3726974 24.00864359 -12.3726974 24.00864359 -10 22 C-9.33333333 18.5 -9.33333333 18.5 -10 15 C-10.495 14.525625 -10.99 14.05125 -11.5 13.5625 C-13 12 -13 12 -13.4375 8.0625 C-13.32774781 4.92012162 -13.12199449 4.15859283 -11.125 1.5625 C-7.09874256 -1.39798342 -4.89161925 -1.11563246 0 0 Z M-18 92 C-17.34 92.33 -16.68 92.66 -16 93 C-16.99 93 -17.98 93 -19 93 C-18.67 92.67 -18.34 92.34 -18 92 Z " fill="#CC975F" transform="translate(200,135)"/>
<path d="M0 0 C-1.34319131 5.84582696 -2.74276935 11.58739228 -4.90234375 17.19140625 C-15.069785 43.6386221 -15.28957335 70.88830876 -15.03359985 98.84375 C-14.89693152 113.84357577 -15.16302263 128.21698834 -18 143 C-18.17692383 143.97646484 -18.35384766 144.95292969 -18.53613281 145.95898438 C-21.09580713 159.93772391 -24.64723697 173.4780145 -29 187 C-29.66 187 -30.32 187 -31 187 C-34.41684307 179.23120136 -36.6218515 171.35918122 -38.625 163.125 C-38.9240625 161.93519531 -39.223125 160.74539062 -39.53125 159.51953125 C-43.65378541 142.82873522 -45.17964491 126.67671793 -45.125 109.5 C-45.12886719 108.28441406 -45.13273437 107.06882812 -45.13671875 105.81640625 C-45.12442043 94.29288427 -44.84247239 83.15353173 -41.5 72.0625 C-41.23864258 71.17844482 -40.97728516 70.29438965 -40.70800781 69.38354492 C-36.66273702 56.15960592 -18.2241429 0 0 0 Z " fill="#9B6239" transform="translate(161,65)"/>
<path d="M0 0 C15.82322936 2.07291214 28.95679939 15.72269304 38.51171875 27.6953125 C42.47768174 32.85909019 45.79930483 38.33674215 49 44 C49.36335449 44.61262695 49.72670898 45.22525391 50.10107422 45.85644531 C58.9367682 60.76974031 65.77284015 78.58294184 67 96 C67.0530127 96.70141113 67.10602539 97.40282227 67.16064453 98.12548828 C68.47534054 118.20036054 64.47529319 138.67547665 54 156 C52.68 155.67 51.36 155.34 50 155 C50 154.34 50 153.68 50 153 C49.34 153.515625 48.68 154.03125 48 154.5625 C44.01924004 156.46994748 41.18242613 156.26740186 37 155 C34.23898854 153.17890734 32.47899452 151.95798903 31 149 C30.41747573 141.77669903 30.41747573 141.77669903 32.875 138.5 C35 137 35 137 37 137 C36.87238281 136.21238281 36.74476563 135.42476562 36.61328125 134.61328125 C35.99739567 127.85453688 36.5833543 123.73405455 40.88549805 118.53393555 C43.20097603 115.96567454 45.59272142 113.48238868 48 111 C51.06828135 104.86343731 48.68776593 94.57899867 48 87.9375 C47.92394531 86.90044922 47.84789062 85.86339844 47.76953125 84.79492188 C47.01628814 77.80748433 45.2630086 74.22083771 39.96655273 69.56225586 C39.31759033 69.04671143 38.66862793 68.53116699 38 68 C37.030625 67.21625 36.06125 66.4325 35.0625 65.625 C34.381875 65.08875 33.70125 64.5525 33 64 C31.62743396 61.25486791 31.96239087 58.94013248 31.9375 55.875 C31.4833427 49.67506471 30.10708453 46.39157955 25.40234375 42.31640625 C21.89201238 40.39285881 19.01491959 40.46578321 15.1015625 40.9140625 C14.40804687 40.94242188 13.71453125 40.97078125 13 41 C12.34 40.34 11.68 39.68 11 39 C11 38.01 11 37.02 11 36 C10.34 36 9.68 36 9 36 C9 37.98 9 39.96 9 42 C8.34 42 7.68 42 7 42 C6.78851318 40.79053711 6.78851318 40.79053711 6.57275391 39.55664062 C5.92647341 35.8705658 5.27577435 32.18528398 4.625 28.5 C4.40328125 27.2315625 4.1815625 25.963125 3.953125 24.65625 C2.60002102 16.94166995 2.60002102 16.94166995 0.84375 9.3125 C0.01640287 6.06439647 -0.16675749 3.33514973 0 0 Z " fill="#CD985F" transform="translate(191,62)"/>
<path d="M0 0 C-0.6290625 0.66644531 -1.258125 1.33289063 -1.90625 2.01953125 C-7.80098629 8.3670259 -13.06748879 14.86181868 -18 22 C-18.83534758 23.15537466 -19.67131582 24.31030076 -20.5078125 25.46484375 C-26.72734096 34.20916583 -30.76767448 42.79705495 -34 53 C-34.25765137 53.79100098 -34.51530273 54.58200195 -34.78076172 55.39697266 C-35.6001205 57.92625458 -36.39847796 60.46109916 -37.1875 63 C-37.4256543 63.75756592 -37.66380859 64.51513184 -37.90917969 65.2956543 C-41.85501122 78.49592731 -43.56516834 91.37991525 -43.4375 105.125 C-43.43412628 105.83888885 -43.43075256 106.55277771 -43.42727661 107.28829956 C-43.29532988 126.70335658 -39.27974305 144.15195142 -33.5859375 162.64453125 C-32.13751917 167.391556 -31.00869055 172.14130739 -30 177 C-30.66 177 -31.32 177 -32 177 C-33.515625 174.91015625 -33.515625 174.91015625 -35.25 172.0625 C-37.36479258 168.62052278 -39.5085237 165.27208315 -41.875 162 C-57.82424946 138.05474612 -64.39110947 107.69460707 -59.12890625 79.328125 C-58.07172021 74.76729251 -56.63788968 70.3821885 -55 66 C-54.7323584 65.26120605 -54.4647168 64.52241211 -54.18896484 63.76123047 C-45.82593624 41.03358567 -31.46190667 21.59830466 -13.125 5.875 C-12.32195435 5.18253174 -12.32195435 5.18253174 -11.50268555 4.47607422 C-3.82685838 -1.91342919 -3.82685838 -1.91342919 0 0 Z " fill="#9A623A" transform="translate(147,65)"/>
<path d="M0 0 C2.875 2.0625 2.875 2.0625 5 5 C5.09667969 6.11375 5.19335938 7.2275 5.29296875 8.375 C6.19447881 12.99710683 7.81692621 14.03256629 11.4375 16.9375 C15.70979373 20.68131814 17.58983143 23.54944281 18.24243164 29.23657227 C18.3289764 30.63260463 18.38552264 32.03091092 18.40795898 33.42944336 C18.5096899 37.2103642 18.83538841 38.79981198 21.27734375 41.76953125 C24.22575986 44.18494817 27.19460333 46.5588098 30.23046875 48.86328125 C34.71406373 54.27724693 34.72647972 63.30067647 35.625 70.0625 C35.7590625 71.01705078 35.893125 71.97160156 36.03125 72.95507812 C36.39359008 75.63380657 36.70796518 78.31280437 37 81 C37.13921875 82.24007812 37.2784375 83.48015625 37.421875 84.7578125 C36.82982769 89.30780575 34.68637207 91.53300517 31.625 94.8125 C30.86316406 95.67004883 30.86316406 95.67004883 30.0859375 96.54492188 C28.11271465 98.7544122 26.09468958 100.90531042 24 103 C23.64079034 105.95517192 23.64079034 105.95517192 23.6875 109.3125 C23.67074219 110.44300781 23.65398437 111.57351562 23.63671875 112.73828125 C24.03282287 116.29469999 25.09820555 118.03159068 27 121 C26.93311096 124.81267501 26.50133412 127.18533206 24.5 130.4375 C20.74461475 132.78461578 17.3028409 132.89214866 13 132 C10.27753057 129.87514581 9.26878019 128.42877889 8.62890625 125.02734375 C8.40717657 121.43263531 8.7059131 119.39211587 10.875 116.5 C13 115 13 115 15 115 C14.87238281 114.21238281 14.74476563 113.42476563 14.61328125 112.61328125 C13.99739567 105.85453688 14.5833543 101.73405455 18.88549805 96.53393555 C21.20097603 93.96567454 23.59272142 91.48238868 26 89 C29.06828135 82.86343731 26.68776593 72.57899867 26 65.9375 C25.92394531 64.90044922 25.84789062 63.86339844 25.76953125 62.79492188 C25.01628814 55.80748433 23.2630086 52.22083771 17.96655273 47.56225586 C17.31759033 47.04671143 16.66862793 46.53116699 16 46 C15.030625 45.21625 14.06125 44.4325 13.0625 43.625 C12.381875 43.08875 11.70125 42.5525 11 42 C9.63164358 39.26328716 10 36.99408509 10 33.9375 C9.52931249 27.20592153 7.49322067 24.00049925 2.484375 19.58984375 C-0.01187711 17.9923994 -1.40091468 17.49310586 -4.3125 17.3125 C-8 17 -8 17 -10.5625 14.3125 C-12.2165752 10.50093542 -12.19525917 8.92728014 -11 5 C-8.75956415 -0.52640843 -5.76961718 -0.58674073 0 0 Z " fill="#3B2512" transform="translate(213,84)"/>
<path d="M0 0 C0.99 0.66 1.98 1.32 3 2 C3 2.66 3 3.32 3 4 C3.66 4 4.32 4 5 4 C6.52846661 7.05693322 6.23242445 9.62984547 6 13 C4.625 15.4375 4.625 15.4375 3 17 C2.34 17 1.68 17 1 17 C0.72142786 24.20944688 0.9266484 29.78997693 5.9375 35.3125 C9.43955622 38.40123539 11.58222983 39.46694284 16.25 39.25 C17.07757813 39.17265625 17.90515625 39.0953125 18.7578125 39.015625 C21 39 21 39 24.125 41 C26.71401558 45.14242492 26.61434888 47.16200259 26 52 C24.625 54.5 24.625 54.5 23 56 C22.34 56 21.68 56 21 56 C20.82928278 60.80056831 20.93817357 65.30268213 22 70 C24.0263568 72.23671829 24.0263568 72.23671829 26.5625 74 C29.35921994 76.29667349 30.81752256 77.90830339 31.421875 81.52392578 C31.80478733 88.02364504 31.49365588 94.51327737 31 101 C28.53199953 99.84826645 26.95216435 98.95216435 25 97 C24.82528152 94.90051399 24.73282148 92.79375592 24.6875 90.6875 C24.42396448 85.45577839 24.42396448 85.45577839 21.75 81.0625 C20.8425 80.381875 19.935 79.70125 19 79 C15.00820373 75.03182383 13.50465103 72.87740226 13.44921875 67.02929688 C13.46597656 66.33900391 13.48273438 65.64871094 13.5 64.9375 C13.60805619 60.46148027 13.66103834 57.7461641 10.54296875 54.2265625 C9.28419922 53.12441406 9.28419922 53.12441406 8 52 C6.8125 48.4375 6.8125 48.4375 6 45 C4.84300551 41.8672732 4.84300551 41.8672732 2.1640625 40.1015625 C-1.9524929 38.00613177 -4.77803924 35.03380754 -7 31 C-7.57834195 26.59957211 -7.42349545 22.40973038 -7 18 C-7.66 18 -8.32 18 -9 18 C-11.79691471 15.52580622 -12.31707397 13.15410046 -12.5625 9.5625 C-12.47262742 6.96903425 -12.31477256 5.46945461 -10.86328125 3.3046875 C-7.4143533 0.13638098 -4.55420784 -0.70843233 0 0 Z " fill="#392310" transform="translate(176,153)"/>
<path d="M0 0 C2.2407573 1.80706234 2.86432007 3.06935032 3.27734375 5.90234375 C3.53225783 11.37789814 3.53225783 11.37789814 1.47265625 13.78515625 C-0.70056058 17.05362825 -0.2091851 19.57651035 0.0625 23.4375 C0.13597656 24.73558594 0.20945313 26.03367188 0.28515625 27.37109375 C1.54059863 33.74435041 6.57450499 38.25159611 11.54824829 42.24221802 C13.94805431 44.29086684 15.72278869 45.92489357 16.52606201 49.04022217 C16.69231775 51.42112732 16.67577652 53.7322026 16.5859375 56.1171875 C16.57744781 56.97434357 16.56895813 57.83149963 16.56021118 58.71463013 C16.52678564 61.43606523 16.45153295 64.15447008 16.375 66.875 C16.34488609 68.72651952 16.31751278 70.57808577 16.29296875 72.4296875 C16.22703066 76.95428174 16.12358939 81.47662825 16 86 C16.71027344 86.33773437 17.42054688 86.67546875 18.15234375 87.0234375 C19.07144531 87.46945313 19.99054688 87.91546875 20.9375 88.375 C21.85402344 88.81585938 22.77054688 89.25671875 23.71484375 89.7109375 C26 91 26 91 27 93 C27.44396083 98.21653972 27.44396083 98.21653972 25.9375 100.875 C22.85928089 102.66235303 20.47093932 102.43386742 17 102 C14.6163151 99.86290319 14.03764971 98.12639547 13.125 95.0625 C12.22336887 91.82762802 12.22336887 91.82762802 9.44482422 89.84326172 C6.21046744 86.08179586 6.47114845 83.14707438 6.7578125 78.4453125 C6.80643719 76.76173162 6.85459991 75.07813734 6.90234375 73.39453125 C7.00786018 70.75858349 7.12506314 68.12370387 7.25341797 65.48876953 C8.11236096 55.63445078 8.11236096 55.63445078 5.56884766 46.39892578 C3.80995524 44.65314196 2.07598377 43.34136156 0 42 C-1.31020793 40.55830167 -2.6067045 39.10370397 -3.875 37.625 C-5.88090595 35.26003218 -5.88090595 35.26003218 -8 33 C-8.16988187 29.44758134 -8.29730825 25.90182698 -8.34179688 22.34570312 C-8.45589724 17.59362086 -8.45589724 17.59362086 -11.01171875 13.70703125 C-11.66785156 13.14371094 -12.32398438 12.58039063 -13 12 C-13.72771233 9.26037712 -13.57971577 6.76785861 -13 4 C-9.07078336 -1.10798163 -6.1704023 -1.40728474 0 0 Z " fill="#39230F" transform="translate(200,135)"/>
<path d="M0 0 C3.16076138 1.58038069 4.07056101 4.75171796 5.5625 7.8125 C5.87896484 8.44220703 6.19542969 9.07191406 6.52148438 9.72070312 C8.02533008 12.76351619 9.38363123 15.64796708 10 19 C9.34 19 8.68 19 8 19 C7.7525 19.57234375 7.505 20.1446875 7.25 20.734375 C5.80683801 23.35010611 4.11783778 25.14773456 2 27.25 C1.29875 27.95640625 0.5975 28.6628125 -0.125 29.390625 C-2 31 -2 31 -4 31 C-4 31.66 -4 32.32 -4 33 C-5.65 33.66 -7.3 34.32 -9 35 C-9 35.66 -9 36.32 -9 37 C-9.66 37 -10.32 37 -11 37 C-10.83201904 36.44199707 -10.66403809 35.88399414 -10.4909668 35.30908203 C-8.2450958 27.8368805 -6.02730082 20.35646098 -3.8125 12.875 C-3.44447266 11.63234375 -3.07644531 10.3896875 -2.69726562 9.109375 C-1.79802053 6.07296299 -0.89893547 3.03650369 0 0 Z " fill="#97613A" transform="translate(153,215)"/>
<path d="M0 0 C0.33 0 0.66 0 1 0 C1.03738281 0.80824219 1.07476562 1.61648437 1.11328125 2.44921875 C1.17902344 3.51785156 1.24476563 4.58648437 1.3125 5.6875 C1.39951172 7.27111328 1.39951172 7.27111328 1.48828125 8.88671875 C2.04140892 12.25193058 3.21495101 14.1400828 5 17 C4.93311096 20.81267501 4.50133412 23.18533206 2.5 26.4375 C-1.25538525 28.78461578 -4.6971591 28.89214866 -9 28 C-11.74824977 25.85502457 -12.76830187 24.40904794 -13.3359375 20.95703125 C-13.4375 18.8125 -13.4375 18.8125 -13 15 C-10 13 -10 13 -7 13 C-7 13.99 -7 14.98 -7 16 C-5.35 16.33 -3.7 16.66 -2 17 C-2.20625 16.38125 -2.4125 15.7625 -2.625 15.125 C-2.74875 14.42375 -2.8725 13.7225 -3 13 C-2.34 12.34 -1.68 11.68 -1 11 C-0.53709779 8.33757179 -0.53709779 8.33757179 -0.375 5.375 C-0.30023438 4.37210938 -0.22546875 3.36921875 -0.1484375 2.3359375 C-0.09945312 1.56507813 -0.05046875 0.79421875 0 0 Z " fill="#402711" transform="translate(235,188)"/>
<path d="M0 0 C1.10844919 3.32534757 0.84454356 5.62182575 0 9 C0.99 9 1.98 9 3 9 C3.33 9.99 3.66 10.98 4 12 C4.66 12.33 5.32 12.66 6 13 C5.85879286 14.93784265 5.71187127 16.87526955 5.5625 18.8125 C5.48128906 19.89144531 5.40007812 20.97039062 5.31640625 22.08203125 C5 25 5 25 4 28 C1.9375 28.6875 1.9375 28.6875 0 29 C0 29.66 0 30.32 0 31 C-1.65 30.67 -3.3 30.34 -5 30 C-5.22178727 24.45531825 -4.86009297 20.27026342 -3 15 C-2.42729393 11.90985935 -1.93771481 8.81391137 -1.46484375 5.70703125 C-1 3 -1 3 0 0 Z " fill="#C3905A" transform="translate(165,91)"/>
<path d="M0 0 C0.66 0.33 1.32 0.66 2 1 C2 1.66 2 2.32 2 3 C3.0725 3.0825 4.145 3.165 5.25 3.25 C9.35603475 4.07120695 10.62427019 4.61915374 13 8 C14.15711808 11.62563666 14.3351709 13.26262402 12.75 16.75 C11 19 11 19 8 21 C5.66800612 21.07905064 3.33167378 21.08798769 1 21 C0.4465236 18.92446352 0 17.15634036 0 15 C0.66 15 1.32 15 2 15 C2 12.69 2 10.38 2 8 C2.66 7.67 3.32 7.34 4 7 C4.33 6.67 4.66 6.34 5 6 C2.03 5.505 2.03 5.505 -1 5 C-0.67 3.35 -0.34 1.7 0 0 Z " fill="#3C2612" transform="translate(218,144)"/>
<path d="M0 0 C0.66 0.33 1.32 0.66 2 1 C1.67 2.65 1.34 4.3 1 6 C1.66 6.33 2.32 6.66 3 7 C2.34 8.65 1.68 10.3 1 12 C0.01 11.67 -0.98 11.34 -2 11 C-2.33 11.66 -2.66 12.32 -3 13 C-4.32 12.34 -5.64 11.68 -7 11 C-7.09796875 11.67546875 -7.1959375 12.3509375 -7.296875 13.046875 C-8.51661631 20.32326284 -8.51661631 20.32326284 -10.875 23.625 C-13 25 -13 25 -17 25 C-17 21 -17 17 -17 13 C-16.01 13 -15.02 13 -14 13 C-14 12.34 -14 11.68 -14 11 C-12.4609375 9.66796875 -12.4609375 9.66796875 -10.375 8.1875 C-6.78510989 5.58770414 -3.37659962 2.87010968 0 0 Z " fill="#332112" transform="translate(225,252)"/>
<path d="M0 0 C0 0.99 0 1.98 0 3 C0.66 3 1.32 3 2 3 C1.25 7.75 1.25 7.75 -1 10 C-1.38886088 12.5290915 -1.38886088 12.5290915 -1.5 15.375 C-1.70544764 19.18605379 -2.22908726 21.64383472 -4 25 C-4 25.99 -4 26.98 -4 28 C-6.64 26.68 -9.28 25.36 -12 24 C-11.505 22.515 -11.505 22.515 -11 21 C-10.34 21 -9.68 21 -9 21 C-9.08121094 20.154375 -9.16242188 19.30875 -9.24609375 18.4375 C-9.5890988 12.27740933 -9.81564497 8.00283739 -5.625 3.1875 C-2.43092784 0 -2.43092784 0 0 0 Z " fill="#382210" transform="translate(237,178)"/>
<path d="M0 0 C3.6875 0.4375 3.6875 0.4375 6.625 2.4375 C9.46653011 6.57063471 9.31619315 8.48654141 8.6875 13.4375 C7.3125 15.9375 7.3125 15.9375 5.6875 17.4375 C5.0275 17.4375 4.3675 17.4375 3.6875 17.4375 C3.6875 22.0575 3.6875 26.6775 3.6875 31.4375 C2.6975 31.7675 1.7075 32.0975 0.6875 32.4375 C0.0275 31.1175 -0.6325 29.7975 -1.3125 28.4375 C-0.82007813 28.0559375 -0.32765625 27.674375 0.1796875 27.28125 C2.2473658 24.75289726 1.95958768 23.15612455 1.8125 19.9375 C1.6794248 16.63723502 1.63367613 14.5989716 2.6875 11.4375 C2.3575 11.7675 2.0275 12.0975 1.6875 12.4375 C0.02132885 12.47813832 -1.64638095 12.480221 -3.3125 12.4375 C-3.6425 10.4575 -3.9725 8.4775 -4.3125 6.4375 C-2.6625 5.7775 -1.0125 5.1175 0.6875 4.4375 C0.3575 3.7775 0.0275 3.1175 -0.3125 2.4375 C-1.9625 2.4375 -3.6125 2.4375 -5.3125 2.4375 C-3.3125 0.4375 -3.3125 0.4375 0 0 Z " fill="#3B230E" transform="translate(193.3125,191.5625)"/>
<path d="M0 0 C0.33 0 0.66 0 1 0 C1.50790159 3.51973999 2.00488523 7.04094042 2.5 10.5625 C2.64308594 11.55314453 2.78617188 12.54378906 2.93359375 13.56445312 C4.89789366 27.64193583 4.89789366 27.64193583 1.8125 32.30859375 C0.89228332 33.36684293 -0.0457935 34.40979381 -1 35.4375 C-1.47695312 35.97826172 -1.95390625 36.51902344 -2.4453125 37.07617188 C-3.61490774 38.3978145 -4.80542093 39.70089526 -6 41 C-6.495 39.515 -6.495 39.515 -7 38 C-7.66 38 -8.32 38 -9 38 C-9 37.01 -9 36.02 -9 35 C-9.66 34.67 -10.32 34.34 -11 34 C-10.18144531 33.18273437 -9.36289063 32.36546875 -8.51953125 31.5234375 C-5.32174127 27.68608952 -5.40405676 24.44789569 -5.6875 19.625 C-5.71005859 18.88894531 -5.73261719 18.15289062 -5.75585938 17.39453125 C-5.81427073 15.59546158 -5.90393663 13.79745247 -6 12 C-5.67 12 -5.34 12 -5 12 C-4.87882813 12.84304687 -4.75765625 13.68609375 -4.6328125 14.5546875 C-4.46523437 15.65039062 -4.29765625 16.74609375 -4.125 17.875 C-3.96257812 18.96554688 -3.80015625 20.05609375 -3.6328125 21.1796875 C-3.23743487 24.11932714 -3.23743487 24.11932714 -1 26 C-0.34 26.33 0.32 26.66 1 27 C0.89171875 25.45892578 0.89171875 25.45892578 0.78125 23.88671875 C0.24042068 15.91213746 -0.15250763 7.99817792 0 0 Z " fill="#412913" transform="translate(246,143)"/>
<path d="M0 0 C1.48253267 0.61697319 2.96095174 1.24383896 4.4375 1.875 C5.67306641 2.39707031 5.67306641 2.39707031 6.93359375 2.9296875 C9 4 9 4 10 6 C10.44396083 11.21653972 10.44396083 11.21653972 8.9375 13.875 C5.85928089 15.66235303 3.47093932 15.43386742 0 15 C-3.03618101 12.27790668 -3.78493803 8.80719418 -5 5 C-5.66 4.01 -6.32 3.02 -7 2 C-4.69 2 -2.38 2 0 2 C0 1.34 0 0.68 0 0 Z " fill="#492D14" transform="translate(217,222)"/>
<path d="M0 0 C4.73030252 4.73030252 3.04452759 15.16529973 3.06591797 21.63232422 C3.06102207 24.75521064 3.03607723 27.87731557 3 31 C1.68 31 0.36 31 -1 31 C-5.09160305 12.73391494 -5.09160305 12.73391494 -4 6 C-3.34 5.34 -2.68 4.68 -2 4 C-1.30251417 2.68252676 -0.63040043 1.35085807 0 0 Z " fill="#362210" transform="translate(244,139)"/>
<path d="M0 0 C4.69689379 3.75751503 4.69689379 3.75751503 5.47265625 6.9375 C5.63990369 10.77691958 5.23408391 12.63326854 3.125 15.9375 C0.39102013 18.5910687 -0.47384331 18.95036258 -4.3125 19.3125 C-8.65240519 18.94471142 -10.19365137 18.31659383 -13 15 C-13.3125 11.25 -13.3125 11.25 -13 8 C-12.505 8.309375 -12.01 8.61875 -11.5 8.9375 C-8.02013219 10.41644382 -4.75971491 10.62402851 -1 11 C0.71422413 7.72317444 0.71422413 7.72317444 2 4 C1.34317691 1.59313185 1.34317691 1.59313185 0 0 Z " fill="#37210D" transform="translate(180,118)"/>
<path d="M0 0 C2.4375 1.5 2.4375 1.5 4 3 C3.34 4.32 2.68 5.64 2 7 C1.01 7 0.02 7 -1 7 C-1.33 8.65 -1.66 10.3 -2 12 C-3.65 12 -5.3 12 -7 12 C-7 12.99 -7 13.98 -7 15 C-6.01 15.33 -5.02 15.66 -4 16 C-5.32 16.33 -6.64 16.66 -8 17 C-12.03460208 11.8650519 -12.03460208 11.8650519 -11.875 7.875 C-11.10937317 5.35936899 -10.39883415 3.22167776 -9 1 C-5.94306678 -0.52846661 -3.37015453 -0.23242445 0 0 Z " fill="#3F250F" transform="translate(213,84)"/>
<path d="M0 0 C2.23918419 1.8057937 2.84945187 3.08353828 3.3125 5.90234375 C3.54065643 9.7310938 3.45860764 11.42674045 1 14.5 C0.01 15.2425 0.01 15.2425 -1 16 C-1 14.68 -1 13.36 -1 12 C-3.31 11.01 -5.62 10.02 -8 9 C-8 8.34 -8 7.68 -8 7 C-9.32 7 -10.64 7 -12 7 C-12.33 6.01 -12.66 5.02 -13 4 C-8.4242206 -0.72830538 -6.62642771 -1.51129053 0 0 Z " fill="#37220F" transform="translate(200,135)"/>
<path d="M0 0 C0.99 0 1.98 0 3 0 C3.02505615 0.65073486 3.0501123 1.30146973 3.07592773 1.97192383 C3.19193702 4.91898046 3.31464115 7.8657213 3.4375 10.8125 C3.47681641 11.83666016 3.51613281 12.86082031 3.55664062 13.91601562 C3.59853516 14.89892578 3.64042969 15.88183594 3.68359375 16.89453125 C3.72025146 17.80050049 3.75690918 18.70646973 3.79467773 19.63989258 C3.9208205 22.15048782 3.9208205 22.15048782 5 25 C2.36 25 -0.28 25 -3 25 C-4.8239877 21.35202461 -3.59416704 17.02681206 -3.1875 13.0625 C-3.10435547 12.14275391 -3.02121094 11.22300781 -2.93554688 10.27539062 C-2.84724609 9.39173828 -2.75894531 8.50808594 -2.66796875 7.59765625 C-2.58828857 6.78820557 -2.5086084 5.97875488 -2.42651367 5.14477539 C-2 3 -2 3 0 0 Z " fill="#362312" transform="translate(212,199)"/>
<path d="M0 0 C0.66 0.33 1.32 0.66 2 1 C1.67 1.33 1.34 1.66 1 2 C1.598125 2.04125 2.19625 2.0825 2.8125 2.125 C5 3 5 3 7 5.625 C8 9 8 9 7.29296875 10.953125 C6.1875 12.875 6.1875 12.875 4 16 C2.35369672 15.85957123 0.70795821 15.71250671 -0.9375 15.5625 C-2.31228516 15.44068359 -2.31228516 15.44068359 -3.71484375 15.31640625 C-6 15 -6 15 -7 14 C-7.66 14.99 -8.32 15.98 -9 17 C-9.125 10.25 -9.125 10.25 -8 8 C-6.35 8 -4.7 8 -3 8 C-2.67 8.99 -2.34 9.98 -2 11 C-1.24940913 8.66482841 -0.90789696 7.33771114 -1.5625 4.9375 C-1.706875 4.298125 -1.85125 3.65875 -2 3 C-1.34 2.01 -0.68 1.02 0 0 Z " fill="#3C2713" transform="translate(175,114)"/>
<path d="M0 0 C0.61875 0.33 1.2375 0.66 1.875 1 C3.91018344 2.14193235 3.91018344 2.14193235 6 2 C6.12375 2.804375 6.2475 3.60875 6.375 4.4375 C6.58125 5.283125 6.7875 6.12875 7 7 C7.66 7.33 8.32 7.66 9 8 C8.34 10.97 7.68 13.94 7 17 C1.74114994 14.5934076 -2.20305152 12.50887632 -6 8 C-6 6 -6 6 -4.625 4.375 C-3 3 -3 3 -1 3 C-0.67 2.01 -0.34 1.02 0 0 Z " fill="#342113" transform="translate(222,68)"/>
<path d="M0 0 C0.33 0 0.66 0 1 0 C1.33 2.31 1.66 4.62 2 7 C3.65 6.67 5.3 6.34 7 6 C8.20568053 10.67201205 8.09382426 15.21496292 8 20 C7.67 20 7.34 20 7 20 C7 18.02 7 16.04 7 14 C6.01 14 5.02 14 4 14 C2.02462968 21.63809855 1.42522771 29.1332874 1 37 C0.34 37 -0.32 37 -1 37 C-1.1574163 24.63407511 -0.67707648 12.34584137 0 0 Z " fill="#4D331A" transform="translate(208,185)"/>
<path d="M0 0 C1.32 0.66 2.64 1.32 4 2 C4 3.32 4 4.64 4 6 C6.97 6.495 6.97 6.495 10 7 C9.67 8.32 9.34 9.64 9 11 C8.34 11 7.68 11 7 11 C6.67 12.98 6.34 14.96 6 17 C5.34 17 4.68 17 4 17 C4 17.66 4 18.32 4 19 C4.66 19.33 5.32 19.66 6 20 C5.01 20.33 4.02 20.66 3 21 C1.03081213 19.37529147 0.06368183 18.57648812 -0.22265625 15.984375 C-0.16980469 15.24703125 -0.11695313 14.5096875 -0.0625 13.75 C0.10177831 9.38591097 -0.59713006 6.12093045 -2 2 C-1.34 1.34 -0.68 0.68 0 0 Z " fill="#362110" transform="translate(214,142)"/>
<path d="M0 0 C2.96660126 0.32962236 4.7365633 0.80528592 7.15625 2.59375 C9.69314619 5.90461452 9.40247742 8.13310964 9.25 12.25 C9.21390625 13.51328125 9.1778125 14.7765625 9.140625 16.078125 C9.07101563 17.52445313 9.07101563 17.52445313 9 19 C8.34 17.68 7.68 16.36 7 15 C5.35 15.33 3.7 15.66 2 16 C1.8046875 13.98177083 1.609375 11.96354167 1.4140625 9.9453125 C1.13625251 7.77331755 1.13625251 7.77331755 -1 6 C-0.625 2.875 -0.625 2.875 0 0 Z " fill="#392210" transform="translate(207,177)"/>
<path d="M0 0 C0.99 0.33 1.98 0.66 3 1 C3.859375 3.08203125 3.859375 3.08203125 4 6 C2.41802881 8.5446737 0.35810883 10.57220444 -1.75 12.6875 C-2.30171875 13.26822266 -2.8534375 13.84894531 -3.421875 14.44726562 C-5.86562152 16.98793959 -8.04549876 19.0303325 -11 21 C-11.99 20.67 -12.98 20.34 -14 20 C-13.34 20 -12.68 20 -12 20 C-11.80664062 19.07316406 -11.61328125 18.14632813 -11.4140625 17.19140625 C-11.15367187 15.99386719 -10.89328125 14.79632813 -10.625 13.5625 C-10.36976563 12.36753906 -10.11453125 11.17257812 -9.8515625 9.94140625 C-9.43003906 8.48541016 -9.43003906 8.48541016 -9 7 C-8.34 6.67 -7.68 6.34 -7 6 C-6.01 6.66 -5.02 7.32 -4 8 C-0.37206002 6.13433512 -0.37206002 6.13433512 2 3 C1.01 2.67 0.02 2.34 -1 2 C-0.67 1.34 -0.34 0.68 0 0 Z " fill="#3A2A1C" transform="translate(226,256)"/>
<path d="M0 0 C0.33 0 0.66 0 1 0 C1.03738281 0.80824219 1.07476562 1.61648437 1.11328125 2.44921875 C1.17902344 3.51785156 1.24476563 4.58648437 1.3125 5.6875 C1.39951172 7.27111328 1.39951172 7.27111328 1.48828125 8.88671875 C2.04293169 12.26119509 3.25605855 14.10589878 5 17 C5.1875 19.8125 5.1875 19.8125 5 22 C3.37509046 22.02698189 1.75005367 22.04638757 0.125 22.0625 C-1.23238281 22.07990234 -1.23238281 22.07990234 -2.6171875 22.09765625 C-5 22 -5 22 -7 21 C-6.67 19.68 -6.34 18.36 -6 17 C-4.68 16.67 -3.36 16.34 -2 16 C-2 14.68 -2 13.36 -2 12 C-1.67 11.67 -1.34 11.34 -1 11 C-0.76636119 9.15108054 -0.58696365 7.29511969 -0.4375 5.4375 C-0.35371094 4.42558594 -0.26992187 3.41367188 -0.18359375 2.37109375 C-0.12300781 1.58863281 -0.06242188 0.80617187 0 0 Z " fill="#543A24" transform="translate(235,188)"/>
<path d="M0 0 C0.33 0 0.66 0 1 0 C1.06058594 1.20398438 1.12117187 2.40796875 1.18359375 3.6484375 C1.26799732 5.22397077 1.35264541 6.79949096 1.4375 8.375 C1.47681641 9.1690625 1.51613281 9.963125 1.55664062 10.78125 C1.68893404 15.02601221 1.68893404 15.02601221 3 19 C0.4375 19.9375 0.4375 19.9375 -3 20 C-5.67631874 17.95937374 -7.83557436 15.56785409 -10 13 C-9.67 12.01 -9.34 11.02 -9 10 C-3.375 9.75 -3.375 9.75 0 12 C0 8.04 0 4.08 0 0 Z " fill="#CF9A63" transform="translate(208,243)"/>
<path d="M0 0 C-0.33 1.65 -0.66 3.3 -1 5 C0.65 4.01 2.3 3.02 4 2 C5.70884005 3.62339805 7.37446717 5.29319053 9 7 C9 7.66 9 8.32 9 9 C7.35 9 5.7 9 4 9 C4 9.99 4 10.98 4 12 C0.60184863 10.86728288 -0.28644916 9.8090686 -2.5625 7.125 C-3.46162109 6.07699219 -3.46162109 6.07699219 -4.37890625 5.0078125 C-6 3 -6 3 -8 0 C-4.71303767 -0.79953138 -3.28976808 -1.09658936 0 0 Z " fill="#402812" transform="translate(198,225)"/>
<path d="M0 0 C0.66 0.33 1.32 0.66 2 1 C2.625 4.0625 2.625 4.0625 3 7 C4.32 6.67 5.64 6.34 7 6 C7 6.66 7 7.32 7 8 C7.66 8 8.32 8 9 8 C8.1875 10.9375 8.1875 10.9375 7 14 C6.01 14.33 5.02 14.66 4 15 C3.34 14.67 2.68 14.34 2 14 C2 13.34 2 12.68 2 12 C1.01 12.7734375 1.01 12.7734375 0 13.5625 C-4.14659826 15.54941167 -6.53020565 14.83335149 -11 14 C-11 13.67 -11 13.34 -11 13 C-6.545 12.505 -6.545 12.505 -2 12 C-0.00214565 7.8794254 0.17835515 4.54805635 0 0 Z " fill="#C6925D" transform="translate(239,203)"/>
<path d="M0 0 C0.66 0.66 1.32 1.32 2 2 C1.92366789 6.12193383 1.61375058 8.29599198 -1.125 11.4375 C-4.63830712 13.34690605 -7.05859564 13.30912975 -11 13 C-11.33 12.34 -11.66 11.68 -12 11 C-11.01 11 -10.02 11 -9 11 C-9 9.68 -9 8.36 -9 7 C-7.35 7 -5.7 7 -4 7 C-3.71125 6.030625 -3.4225 5.06125 -3.125 4.0625 C-2 1 -2 1 0 0 Z " fill="#3E210B" transform="translate(230,152)"/>
<path d="M0 0 C1.32 0.33 2.64 0.66 4 1 C3.67 2.98 3.34 4.96 3 7 C4.32 7.33 5.64 7.66 7 8 C6.34 8 5.68 8 5 8 C4.67 8.66 4.34 9.32 4 10 C1.41358337 11.32815989 -0.21965681 12.13770762 -3.125 11.625 C-3.74375 11.41875 -4.3625 11.2125 -5 11 C-5.99 11 -6.98 11 -8 11 C-6.63629701 8.00779732 -5.05091917 5.70973471 -2.875 3.25 C-2.33617188 2.63640625 -1.79734375 2.0228125 -1.2421875 1.390625 C-0.62730469 0.70226562 -0.62730469 0.70226562 0 0 Z " fill="#3D2D1F" transform="translate(110,75)"/>
<path d="M0 0 C-0.99 3.96 -1.98 7.92 -3 12 C-4 8 -4 8 -4 5 C-5.02213495 7.82215709 -5.02213495 7.82215709 -5.375 10.125 C-5.58125 10.74375 -5.7875 11.3625 -6 12 C-6.99 12.33 -7.98 12.66 -9 13 C-9 13.66 -9 14.32 -9 15 C-12.465 16.485 -12.465 16.485 -16 18 C-13.63225374 12.85627536 -6.30495883 0 0 0 Z " fill="#905E38" transform="translate(161,65)"/>
<path d="M0 0 C0.33 0 0.66 0 1 0 C1.66 2.31 2.32 4.62 3 7 C3.66 5.02 4.32 3.04 5 1 C7.97 1.495 7.97 1.495 11 2 C11 3.65 11 5.3 11 7 C9.68 7 8.36 7 7 7 C7.33 7.99 7.66 8.98 8 10 C6 12 6 12 3 13 C0.95204577 11.0373772 0.05023362 9.5722693 -0.19921875 6.73046875 C-0.18858877 4.48045617 -0.12958525 2.24614438 0 0 Z " fill="#432A11" transform="translate(164,158)"/>
<path d="M0 0 C1.32 0 2.64 0 4 0 C4.1959375 0.56589844 4.391875 1.13179688 4.59375 1.71484375 C5.55120173 4.06307666 6.45015 5.98604657 8 8 C10.83761177 9.0451509 12.91790709 9 16 9 C16 9.66 16 10.32 16 11 C14.54207116 11.05399736 13.08357288 11.09279177 11.625 11.125 C10.81289062 11.14820312 10.00078125 11.17140625 9.1640625 11.1953125 C7 11 7 11 5 9 C5 8.01 5 7.02 5 6 C4.34 6 3.68 6 3 6 C3 7.98 3 9.96 3 12 C2.34 12 1.68 12 1 12 C0.67 8.04 0.34 4.08 0 0 Z " fill="#C39765" transform="translate(197,92)"/>
<path d="M0 0 C0.99 0.33 1.98 0.66 3 1 C3.02701408 3.10409639 3.04640223 5.20829178 3.0625 7.3125 C3.07410156 8.48425781 3.08570313 9.65601563 3.09765625 10.86328125 C3 14 3 14 2 17 C1.77674186 19.05893621 1.59294241 21.12233653 1.4375 23.1875 C1.35371094 24.27417969 1.26992187 25.36085937 1.18359375 26.48046875 C1.12300781 27.31191406 1.06242188 28.14335937 1 29 C0.34 28.67 -0.32 28.34 -1 28 C-0.99476318 27.34926514 -0.98952637 26.69853027 -0.98413086 26.02807617 C-0.96335062 23.08122726 -0.9503365 20.13439377 -0.9375 17.1875 C-0.92912109 16.16333984 -0.92074219 15.13917969 -0.91210938 14.08398438 C-0.90888672 13.10107422 -0.90566406 12.11816406 -0.90234375 11.10546875 C-0.89710693 10.19949951 -0.89187012 9.29353027 -0.88647461 8.36010742 C-0.90079019 5.84715961 -0.90079019 5.84715961 -2 3 C-1.34 2.01 -0.68 1.02 0 0 Z " fill="#B08555" transform="translate(207,226)"/>
<path d="M0 0 C0.99 0.66 1.98 1.32 3 2 C1.64075883 6.44842565 -0.27221998 8.29735949 -4 11 C-5.17749808 12.17749808 -6.3341596 13.37774564 -7.4375 14.625 C-9 16 -9 16 -12 16 C-8.34880098 10.29014621 -4.51755454 5.05535865 0 0 Z " fill="#40270E" transform="translate(230,241)"/>
<path d="M0 0 C0.33 0 0.66 0 1 0 C1.07654536 4.51617599 1.10228696 8.59085217 0 13 C-0.66 13 -1.32 13 -2 13 C-2.33 13.66 -2.66 14.32 -3 15 C-5.5625 15.625 -5.5625 15.625 -8 16 C-6.44584521 10.0942118 -3.40465533 5.02261107 0 0 Z " fill="#423223" transform="translate(94,96)"/>
<path d="M0 0 C1.258125 0.12375 2.51625 0.2475 3.8125 0.375 C4.87404297 0.47941406 4.87404297 0.47941406 5.95703125 0.5859375 C8 1 8 1 11 3 C14.63939932 2.68269476 14.63939932 2.68269476 18 2 C18.103125 3.11375 18.20625 4.2275 18.3125 5.375 C18.6528125 7.169375 18.6528125 7.169375 19 9 C19.99 9.66 20.98 10.32 22 11 C21.67 11.99 21.34 12.98 21 14 C20.40574219 13.48050781 19.81148437 12.96101563 19.19921875 12.42578125 C13.18002922 7.36142427 7.30865314 3.89011379 0 1 C0 0.67 0 0.34 0 0 Z " fill="#462B11" transform="translate(194,62)"/>
<path d="M0 0 C0.33 1.98 0.66 3.96 1 6 C1.99 5.67 2.98 5.34 4 5 C4.33 5.66 4.66 6.32 5 7 C4.34 7 3.68 7 3 7 C3.99 8.98 4.98 10.96 6 13 C5.34 13.66 4.68 14.32 4 15 C0.08552441 11.27856704 -3.49653351 7.85967024 -6 3 C-2.25 0 -2.25 0 0 0 Z M-2 5 C-2 5.66 -2 6.32 -2 7 C-1.34 6.67 -0.68 6.34 0 6 C-0.66 5.67 -1.32 5.34 -2 5 Z " fill="#413023" transform="translate(194,259)"/>
<path d="M0 0 C1.65 0 3.3 0 5 0 C5.33 0.99 5.66 1.98 6 3 C7.32 2.67 8.64 2.34 10 2 C10.33 3.65 10.66 5.3 11 7 C9.52093108 7.02689216 8.04172517 7.04634621 6.5625 7.0625 C5.32693359 7.07990234 5.32693359 7.07990234 4.06640625 7.09765625 C2 7 2 7 1 6 C0.34 6.99 -0.32 7.98 -1 9 C-1.125 2.25 -1.125 2.25 0 0 Z " fill="#412912" transform="translate(167,122)"/>
<path d="M0 0 C0.33 0 0.66 0 1 0 C1.50790159 3.51973999 2.00488523 7.04094042 2.5 10.5625 C2.64308594 11.55314453 2.78617188 12.54378906 2.93359375 13.56445312 C4.4393843 24.35595206 4.4393843 24.35595206 4 29 C3.01 29.99 2.02 30.98 1 32 C0.67 21.44 0.34 10.88 0 0 Z " fill="#58381B" transform="translate(246,143)"/>
<path d="M0 0 C0.33 0 0.66 0 1 0 C1.16752496 4.2356085 1.32809332 8.47140574 1.48217773 12.70751953 C1.5355959 14.14899823 1.59092518 15.59040741 1.64819336 17.03173828 C1.73010997 19.10173553 1.80518359 21.17188427 1.87890625 23.2421875 C1.94960327 25.11173096 1.94960327 25.11173096 2.02172852 27.01904297 C2 30 2 30 1 32 C0.9603287 33.66619446 0.95615553 35.33391013 1 37 C-1.49742403 34.50257597 -1.23676464 33.02282389 -1.25224304 29.61521912 C-1.24505753 28.88497025 -1.23787201 28.15472137 -1.23046875 27.40234375 C-1.22978142 26.27814781 -1.22978142 26.27814781 -1.2290802 25.13124084 C-1.22605811 23.54670631 -1.21817306 21.96217474 -1.20581055 20.37768555 C-1.18754683 17.94374142 -1.18530089 15.51017738 -1.18554688 13.07617188 C-1.18063201 11.53905919 -1.17480382 10.0019491 -1.16796875 8.46484375 C-1.16685593 7.73257065 -1.1657431 7.00029755 -1.16459656 6.24583435 C-1.11605238 1.11605238 -1.11605238 1.11605238 0 0 Z " fill="#351B02" transform="translate(258,152)"/>
<path d="M0 0 C0.33 0.66 0.66 1.32 1 2 C1.66 2 2.32 2 3 2 C3.33 1.34 3.66 0.68 4 0 C4.99 2.31 5.98 4.62 7 7 C5.35 7 3.7 7 2 7 C2.33 7.99 2.66 8.98 3 10 C2.01 10.33 1.02 10.66 0 11 C-0.66 9.35 -1.32 7.7 -2 6 C-2.66 6 -3.32 6 -4 6 C-3.0022242 3.00667261 -2.2477975 2.05233685 0 0 Z " fill="#321F10" transform="translate(249,213)"/>
<path d="M0 0 C3.50582526 1.16860842 4.77811287 2.05647432 7 5 C7.2911521 7.73682971 7.38322418 10.03940039 7.25 12.75 C7.23195312 13.44738281 7.21390625 14.14476562 7.1953125 14.86328125 C7.14838554 16.57611539 7.07664605 18.28823824 7 20 C6.34 19.67 5.68 19.34 5 19 C4.6433535 16.18745864 4.55586944 13.39844707 4.44140625 10.56640625 C4.29574219 9.71949219 4.15007812 8.87257812 4 8 C3.01 7.34 2.02 6.68 1 6 C0.3125 2.875 0.3125 2.875 0 0 Z " fill="#AE8255" transform="translate(183,205)"/>
<path d="M0 0 C2.58363027 1.79931394 4.92369557 3.62338221 7 6 C7.5625 9.75 7.5625 9.75 7 13 C6.34 13.66 5.68 14.32 5 15 C3.35 13.35 1.7 11.7 0 10 C0.99 9.67 1.98 9.34 3 9 C3 8.34 3 7.68 3 7 C2.34 6.67 1.68 6.34 1 6 C0.375 2.9375 0.375 2.9375 0 0 Z " fill="#432B14" transform="translate(200,114)"/>
<path d="M0 0 C0.66 0 1.32 0 2 0 C2.33 3.3 2.66 6.6 3 10 C1.68 10.33 0.36 10.66 -1 11 C-2.73026102 12.47890069 -2.73026102 12.47890069 -4 14 C-4.33 13.67 -4.66 13.34 -5 13 C-4.91062197 11.47480724 -4.75462854 9.95318071 -4.5625 8.4375 C-4.46066406 7.61121094 -4.35882813 6.78492187 -4.25390625 5.93359375 C-4.17011719 5.29550781 -4.08632812 4.65742187 -4 4 C-3.7834375 4.9590625 -3.7834375 4.9590625 -3.5625 5.9375 C-3.18992819 7.97545146 -3.18992819 7.97545146 -2 9 C-1.34 9 -0.68 9 0 9 C0 6.03 0 3.06 0 0 Z " fill="#452A14" transform="translate(197,104)"/>
<path d="M0 0 C0.33 1.32 0.66 2.64 1 4 C0.34 4 -0.32 4 -1 4 C-0.67 4.99 -0.34 5.98 0 7 C0.66 6.67 1.32 6.34 2 6 C1.88590407 7.45922693 1.75834456 8.91740598 1.625 10.375 C1.55539063 11.18710938 1.48578125 11.99921875 1.4140625 12.8359375 C1 15 1 15 -1 17 C-4.18551587 9.89384921 -4.18551587 9.89384921 -3.3125 5.6875 C-2 3 -2 3 0 0 Z " fill="#432A17" transform="translate(180,84)"/>
<path d="M0 0 C5.75 -0.125 5.75 -0.125 8 1 C8.99 0.67 9.98 0.34 11 0 C11 1.65 11 3.3 11 5 C9.37509046 5.02698189 7.75005367 5.04638757 6.125 5.0625 C4.76761719 5.07990234 4.76761719 5.07990234 3.3828125 5.09765625 C1 5 1 5 -1 4 C-0.67 2.68 -0.34 1.36 0 0 Z " fill="#422912" transform="translate(229,205)"/>
<path d="M0 0 C0.33 0.66 0.66 1.32 1 2 C0.34 2 -0.32 2 -1 2 C-1.33 3.65 -1.66 5.3 -2 7 C-3.65 7 -5.3 7 -7 7 C-7.33 5.02 -7.66 3.04 -8 1 C-2.25 -1.125 -2.25 -1.125 0 0 Z " fill="#7F5F3D" transform="translate(197,197)"/>
<path d="M0 0 C0.33 0 0.66 0 1 0 C1.97843146 9.60368113 2.20394875 18.55450534 0 28 C-0.33 28 -0.66 28 -1 28 C-1.1170409 18.59771406 -0.88495497 9.37104106 0 0 Z " fill="#CFA171" transform="translate(216,192)"/>
<path d="M0 0 C0.99 0.33 1.98 0.66 3 1 C3.77734375 3.16796875 3.77734375 3.16796875 4 6 C2.12890625 8.67578125 2.12890625 8.67578125 -0.4375 11.3125 C-1.28183594 12.19550781 -2.12617188 13.07851563 -2.99609375 13.98828125 C-3.98802734 14.98408203 -3.98802734 14.98408203 -5 16 C-5.33 14.68 -5.66 13.36 -6 12 C-5.34 11.67 -4.68 11.34 -4 11 C-3.87625 10.360625 -3.7525 9.72125 -3.625 9.0625 C-3 7 -3 7 -1 5.875 C-0.34 5.58625 0.32 5.2975 1 5 C1.33 4.34 1.66 3.68 2 3 C1.01 2.67 0.02 2.34 -1 2 C-0.67 1.34 -0.34 0.68 0 0 Z " fill="#433326" transform="translate(226,256)"/>
<path d="M0 0 C1.32 0 2.64 0 4 0 C3.74438677 2.3431213 3.40729228 4.67843403 3 7 C0.29120665 8.35439668 -2.00933268 8.06501451 -5 8 C-4.67 7.01 -4.34 6.02 -4 5 C-2.68 5 -1.36 5 0 5 C0 3.35 0 1.7 0 0 Z " fill="#39200D" transform="translate(223,229)"/>
<path d="M0 0 C0.33 0.66 0.66 1.32 1 2 C3.3140622 2.73075648 5.64828869 3.40138258 8 4 C8 5.65 8 7.3 8 9 C6.35 8.67 4.7 8.34 3 8 C3 7.34 3 6.68 3 6 C1.68 6 0.36 6 -1 6 C-1.33 5.01 -1.66 4.02 -2 3 C-1.34 2.01 -0.68 1.02 0 0 Z " fill="#715336" transform="translate(189,136)"/>
<path d="M0 0 C0.33 0 0.66 0 1 0 C0.48351265 7.78808563 -0.44876534 15.34925042 -2 23 C-2.99 23 -3.98 23 -5 23 C-4.40590417 18.14821742 -3.3731134 13.68473985 -2 9 C-1.29623789 6.00781416 -0.64078765 3.00624843 0 0 Z " fill="#875837" transform="translate(144,190)"/>
<path d="M0 0 C0.66 0.33 1.32 0.66 2 1 C1.67 2.32 1.34 3.64 1 5 C-5.625 4.25 -5.625 4.25 -9 2 C-5.54337669 -0.30441554 -4.05142119 -0.25860135 0 0 Z " fill="#422815" transform="translate(176,153)"/>
<path d="M0 0 C0.66 0.66 1.32 1.32 2 2 C1.625 5.625 1.625 5.625 1 9 C0.01 9 -0.98 9 -2 9 C-3.33981486 9.3062434 -4.67511887 9.63451555 -6 10 C-2.62068966 1.31034483 -2.62068966 1.31034483 0 0 Z " fill="#3F2816" transform="translate(230,152)"/>
<path d="M0 0 C0.625 1.875 0.625 1.875 1 4 C0.34 4.66 -0.32 5.32 -1 6 C-1.68025637 7.99541868 -2.34490497 9.99617991 -3 12 C-4.4375 15.3125 -4.4375 15.3125 -6 18 C-6.99 18.33 -7.98 18.66 -9 19 C-7.6077541 14.37324343 -5.70479016 10.35313769 -3.375 6.125 C-2.74335938 4.97257812 -2.11171875 3.82015625 -1.4609375 2.6328125 C-0.97882813 1.76398438 -0.49671875 0.89515625 0 0 Z " fill="#8B5B3B" transform="translate(139,91)"/>
<path d="M0 0 C0.33 0 0.66 0 1 0 C2.17402193 7.33763707 2.09377123 14.58165418 2 22 C1.67 22 1.34 22 1 22 C-1.96296296 5.88888889 -1.96296296 5.88888889 0 0 Z " fill="#895A37" transform="translate(118,192)"/>
<path d="M0 0 C1.65 0.33 3.3 0.66 5 1 C5 2.32 5 3.64 5 5 C3.35 5 1.7 5 0 5 C0 6.32 0 7.64 0 9 C-0.99 8.67 -1.98 8.34 -3 8 C-3 7.01 -3 6.02 -3 5 C-2.34 5 -1.68 5 -1 5 C-0.67 3.35 -0.34 1.7 0 0 Z " fill="#492D18" transform="translate(221,154)"/>
<path d="M0 0 C6.4 -0.36923077 6.4 -0.36923077 9.4375 1.5 C9.953125 1.995 10.46875 2.49 11 3 C10.34 4.32 9.68 5.64 9 7 C6.5625 6.1875 6.5625 6.1875 4 5 C3.67 4.01 3.34 3.02 3 2 C2.01 1.34 1.02 0.68 0 0 Z " fill="#452D17" transform="translate(206,84)"/>
<path d="M0 0 C0.33 0 0.66 0 1 0 C1.33 2.64 1.66 5.28 2 8 C2.66 8 3.32 8 4 8 C4 10.64 4 13.28 4 16 C3.01 16.33 2.02 16.66 1 17 C0 16 0 16 -0.09765625 12.40234375 C-0.0909822 10.91403133 -0.07902183 9.42573568 -0.0625 7.9375 C-0.05798828 7.17888672 -0.05347656 6.42027344 -0.04882812 5.63867188 C-0.0370068 3.75908129 -0.01907078 1.87953101 0 0 Z " fill="#573A23" transform="translate(192,152)"/>
<path d="M0 0 C0.33 0 0.66 0 1 0 C1.63517359 8.09846329 1.63517359 8.09846329 -0.9375 11.75 C-1.618125 12.4925 -2.29875 13.235 -3 14 C-3.78946609 16.68507329 -3.78946609 16.68507329 -4 19 C-4.66 19 -5.32 19 -6 19 C-5.505 14.545 -5.505 14.545 -5 10 C-3.68 9.67 -2.36 9.34 -1 9 C-0.67 6.03 -0.34 3.06 0 0 Z " fill="#C5986A" transform="translate(170,110)"/>
<path d="M0 0 C3.125 -0.1875 3.125 -0.1875 6 0 C4.4169423 4.2742558 1.49431596 6.26531794 -2 9 C-2.25 3.375 -2.25 3.375 0 0 Z " fill="#3A200B" transform="translate(124,73)"/>
<path d="M0 0 C0.66 0.33 1.32 0.66 2 1 C0.8803014 2.00593243 -0.2459412 3.0045849 -1.375 4 C-2.31472656 4.8353125 -2.31472656 4.8353125 -3.2734375 5.6875 C-5 7 -5 7 -7 7 C-8.67745682 7.63903117 -10.34561387 8.30341637 -12 9 C-4.8 1.6 -4.8 1.6 0 0 Z " fill="#895C3C" transform="translate(145,64)"/>
<path d="M0 0 C0.99 0.33 1.98 0.66 3 1 C3.6875 3.0625 3.6875 3.0625 4 5 C4.66 5 5.32 5 6 5 C6 5.66 6 6.32 6 7 C5.38125 6.79375 4.7625 6.5875 4.125 6.375 C3.42375 6.25125 2.7225 6.1275 2 6 C1.34 6.66 0.68 7.32 0 8 C-0.99 6.68 -1.98 5.36 -3 4 C-2.67 3.34 -2.34 2.68 -2 2 C-1.34 2 -0.68 2 0 2 C0 1.34 0 0.68 0 0 Z " fill="#C49158" transform="translate(240,124)"/>
<path d="M0 0 C3.25543229 0.34879632 4.01873107 1.02133261 6.25 3.5625 C6.8275 4.366875 7.405 5.17125 8 6 C6.35 6 4.7 6 3 6 C3 5.01 3 4.02 3 3 C2.01 2.67 1.02 2.34 0 2 C0 1.34 0 0.68 0 0 Z M-2 6 C-0.35 6 1.3 6 3 6 C3 6.99 3 7.98 3 9 C1.0625 8.625 1.0625 8.625 -1 8 C-1.33 7.34 -1.66 6.68 -2 6 Z " fill="#BF905E" transform="translate(214,76)"/>
<path d="M0 0 C2.475 0.495 2.475 0.495 5 1 C5 1.66 5 2.32 5 3 C4.34 3 3.68 3 3 3 C3 6.63 3 10.26 3 14 C1.18751015 10.3750203 0.68111085 8.62740416 0.375 4.75 C0.30023438 3.85796875 0.22546875 2.9659375 0.1484375 2.046875 C0.09945312 1.37140625 0.05046875 0.6959375 0 0 Z " fill="#A88055" transform="translate(191,62)"/>
<path d="M0 0 C0.99 0.33 1.98 0.66 3 1 C3 2.32 3 3.64 3 5 C2.38125 5.12375 1.7625 5.2475 1.125 5.375 C-1.19120832 5.87197356 -1.19120832 5.87197356 -3 8 C-3.66 7.01 -4.32 6.02 -5 5 C-3.35 3.35 -1.7 1.7 0 0 Z " fill="#6D5030" transform="translate(220,229)"/>
<path d="M0 0 C0.66 0 1.32 0 2 0 C2 4.29 2 8.58 2 13 C0.68 12.67 -0.64 12.34 -2 12 C-3.25 9.4375 -3.25 9.4375 -4 7 C-2.68 7.33 -1.36 7.66 0 8 C0 5.36 0 2.72 0 0 Z " fill="#D49D65" transform="translate(206,185)"/>
<path d="M0 0 C0.33 0 0.66 0 1 0 C1.03738281 0.74765625 1.07476562 1.4953125 1.11328125 2.265625 C1.17902344 3.25046875 1.24476563 4.2353125 1.3125 5.25 C1.37050781 6.22453125 1.42851562 7.1990625 1.48828125 8.203125 C2.04636524 11.25341611 2.96369776 12.70711276 5 15 C2.03 14.505 2.03 14.505 -1 14 C-1.18451025 4.58997722 -1.18451025 4.58997722 0 0 Z " fill="#4C2E17" transform="translate(199,155)"/>
<path d="M0 0 C0.66 0 1.32 0 2 0 C2 5.61 2 11.22 2 17 C1.67 17 1.34 17 1 17 C-0.46619907 10.97767819 -1.32528788 6.09632423 0 0 Z " fill="#351C07" transform="translate(213,199)"/>
<path d="M0 0 C0.28617188 0.58523437 0.57234375 1.17046875 0.8671875 1.7734375 C1.88582783 3.77559263 2.97728419 5.69513712 4.125 7.625 C6 11 6 11 6 13 C3.53199953 11.84826645 1.95216435 10.95216435 0 9 C-0.1953125 6.8359375 -0.1953125 6.8359375 -0.125 4.375 C-0.10695312 3.55773437 -0.08890625 2.74046875 -0.0703125 1.8984375 C-0.04710937 1.27195313 -0.02390625 0.64546875 0 0 Z " fill="#D29F6A" transform="translate(200,157)"/>
<path d="M0 0 C0.66 0.33 1.32 0.66 2 1 C2 1.66 2 2.32 2 3 C3.093125 3.103125 4.18625 3.20625 5.3125 3.3125 C8.85559629 3.97307727 9.93243723 4.2027092 12 7 C9.0845524 7 6.65845519 6.59136731 3.8125 6 C2.91144531 5.814375 2.01039063 5.62875 1.08203125 5.4375 C0.39496094 5.293125 -0.29210937 5.14875 -1 5 C-0.67 3.35 -0.34 1.7 0 0 Z " fill="#482D13" transform="translate(218,144)"/>
<path d="M0 0 C0.495 0.804375 0.99 1.60875 1.5 2.4375 C4.95695939 5.98088338 7.14788209 5.7573941 12 6 C12 6.66 12 7.32 12 8 C10.54207116 8.05399736 9.08357288 8.09279177 7.625 8.125 C6.81289062 8.14820312 6.00078125 8.17140625 5.1640625 8.1953125 C3 8 3 8 1 6 C1 5.01 1 4.02 1 3 C0.34 2.67 -0.32 2.34 -1 2 C-0.67 1.34 -0.34 0.68 0 0 Z " fill="#B78D5D" transform="translate(201,95)"/>
<path d="M0 0 C0.66 0.33 1.32 0.66 2 1 C2 5.29 2 9.58 2 14 C1.34 14 0.68 14 0 14 C-0.19393875 11.85473901 -0.37998676 9.70876323 -0.5625 7.5625 C-0.71912109 5.77005859 -0.71912109 5.77005859 -0.87890625 3.94140625 C-0.91886719 2.97074219 -0.95882812 2.00007812 -1 1 C-0.67 0.67 -0.34 0.34 0 0 Z " fill="#AA8258" transform="translate(199,236)"/>
<path d="M0 0 C0.66 1.32 1.32 2.64 2 4 C0.73046875 5.46484375 -0.5390625 6.9296875 -1.80859375 8.39453125 C-3.20871231 10.10712971 -3.20871231 10.10712971 -4 13 C-4.66 13 -5.32 13 -6 13 C-4.58707905 8.1725201 -2.57025846 4.2837641 0 0 Z " fill="#885938" transform="translate(104,105)"/>
<path d="M0 0 C0.66 0.33 1.32 0.66 2 1 C0.71291613 6.54436129 -0.91864693 11.70201036 -3 17 C-4.56393356 13.02623171 -3.36145292 10.18622097 -2.0625 6.25 C-1.68222656 5.07953125 -1.30195312 3.9090625 -0.91015625 2.703125 C-0.60980469 1.81109375 -0.30945313 0.9190625 0 0 Z " fill="#895E3D" transform="translate(93,128)"/>
<path d="M0 0 C0.33 1.32 0.66 2.64 1 4 C1.63654342 5.3479743 2.29605388 6.68596724 3 8 C-1.75 11 -1.75 11 -4 11 C-4 10.34 -4 9.68 -4 9 C-3.34 9 -2.68 9 -2 9 C-1.34 6.03 -0.68 3.06 0 0 Z " fill="#492E17" transform="translate(134,243)"/>
<path d="M0 0 C1.98 0.495 1.98 0.495 4 1 C1.25 7.875 1.25 7.875 -1 9 C-0.67 6.03 -0.34 3.06 0 0 Z " fill="#331F0E" transform="translate(216,225)"/>
<path d="M0 0 C0.33 0 0.66 0 1 0 C1 2.64 1 5.28 1 8 C0.01 8.33 -0.98 8.66 -2 9 C-2.66 7.68 -3.32 6.36 -4 5 C-2.69254251 3.31295807 -1.35827971 1.64639965 0 0 Z " fill="#422B15" transform="translate(196,215)"/>
<path d="M0 0 C0.66 1.32 1.32 2.64 2 4 C1.01 4.66 0.02 5.32 -1 6 C-0.67 7.98 -0.34 9.96 0 12 C-1.98 10.35 -3.96 8.7 -6 7 C-4.71034824 5.62437146 -3.37310707 4.29233607 -2 3 C-1.34 3 -0.68 3 0 3 C0 2.01 0 1.02 0 0 Z " fill="#4B3015" transform="translate(214,138)"/>
<path d="M0 0 C0.66 0.66 1.32 1.32 2 2 C1.6875 4.3125 1.6875 4.3125 1 7 C0.814375 7.928125 0.62875 8.85625 0.4375 9.8125 C0.293125 10.534375 0.14875 11.25625 0 12 C-0.66 12 -1.32 12 -2 12 C-1.85831863 10.56208484 -1.71148957 9.1246763 -1.5625 7.6875 C-1.48128906 6.88699219 -1.40007812 6.08648437 -1.31640625 5.26171875 C-1 3 -1 3 0 0 Z " fill="#8D5C3A" transform="translate(121,132)"/>
<path d="M0 0 C0.33 0 0.66 0 1 0 C1.33 2.64 1.66 5.28 2 8 C3.32 8 4.64 8 6 8 C6 8.66 6 9.32 6 10 C5.01 10.33 4.02 10.66 3 11 C2.34 11.66 1.68 12.32 1 13 C-0.32229189 10.35541621 -0.09677194 8.32238699 -0.0625 5.375 C-0.05347656 4.37210937 -0.04445312 3.36921875 -0.03515625 2.3359375 C-0.02355469 1.56507812 -0.01195312 0.79421875 0 0 Z " fill="#52351B" transform="translate(223,113)"/>
<path d="M0 0 C0.66 0.33 1.32 0.66 2 1 C0.25 6.75 0.25 6.75 -2 9 C-2.66 7.35 -3.32 5.7 -4 4 C-2.68 3.34 -1.36 2.68 0 2 C0 1.34 0 0.68 0 0 Z " fill="#4A3D2F" transform="translate(254,221)"/>
<path d="M0 0 C1.37095624 3.69037278 0.60010967 5.70883835 -0.9375 9.25 C-1.31777344 10.14203125 -1.69804687 11.0340625 -2.08984375 11.953125 C-2.39019531 12.62859375 -2.69054687 13.3040625 -3 14 C-4.1750709 10.47478731 -3.72717795 9.34332144 -2.625 5.875 C-2.34914062 4.98554688 -2.07328125 4.09609375 -1.7890625 3.1796875 C-1 1 -1 1 0 0 Z " fill="#B68B5D" transform="translate(252,197)"/>
<path d="M0 0 C0.33 0 0.66 0 1 0 C1.125 5.75 1.125 5.75 0 8 C-0.0396713 9.66619446 -0.04384447 11.33391013 0 13 C-2.60704898 10.39295102 -2.23905333 8.52661759 -2.265625 4.97265625 C-2 3 -2 3 0 0 Z " fill="#392109" transform="translate(259,176)"/>
<path d="M0 0 C0.33 0 0.66 0 1 0 C1 2.64 1 5.28 1 8 C-0.98 8.66 -2.96 9.32 -5 10 C-3.66654496 6.40992874 -2.1056769 3.20429093 0 0 Z " fill="#493B2D" transform="translate(94,96)"/>
<path d="M0 0 C1 3 1 3 0.22265625 5.04296875 C-0.16019531 5.75066406 -0.54304687 6.45835938 -0.9375 7.1875 C-1.31777344 7.90292969 -1.69804687 8.61835937 -2.08984375 9.35546875 C-2.54037109 10.16951172 -2.54037109 10.16951172 -3 11 C-3.12375 10.360625 -3.2475 9.72125 -3.375 9.0625 C-3.58125 8.381875 -3.7875 7.70125 -4 7 C-4.66 6.67 -5.32 6.34 -6 6 C-5.38125 5.938125 -4.7625 5.87625 -4.125 5.8125 C-1.72238859 5.171081 -1.72238859 5.171081 -0.75 2.4375 C-0.5025 1.633125 -0.255 0.82875 0 0 Z " fill="#C29565" transform="translate(175,90)"/>
<path d="M0 0 C0 0.99 0 1.98 0 3 C-0.99 3.33 -1.98 3.66 -3 4 C-3.33 4.99 -3.66 5.98 -4 7 C-4.33 7.99 -4.66 8.98 -5 10 C-5.99 10.33 -6.98 10.66 -8 11 C-6.46457536 6.52167812 -4.39145948 2.19572974 0 0 Z " fill="#412611" transform="translate(126,93)"/>
<path d="M0 0 C2.12508244 3.18762365 2.5020163 5.26512223 3 9 C2.34 9 1.68 9 1 9 C-0.75 6.75 -0.75 6.75 -2 4 C-1.1875 1.6875 -1.1875 1.6875 0 0 Z " fill="#7B5336" transform="translate(114,233)"/>
<path d="M0 0 C0.99 0 1.98 0 3 0 C3 1.32 3 2.64 3 4 C2.34 4 1.68 4 1 4 C1.33 4.99 1.66 5.98 2 7 C1.0625 9.1875 1.0625 9.1875 0 11 C-0.99 10.67 -1.98 10.34 -3 10 C-2.34 10 -1.68 10 -1 10 C-0.67 6.7 -0.34 3.4 0 0 Z " fill="#C29561" transform="translate(227,226)"/>
<path d="M0 0 C1.32 0 2.64 0 4 0 C4 1.65 4 3.3 4 5 C2.35 4.67 0.7 4.34 -1 4 C-0.67 2.68 -0.34 1.36 0 0 Z " fill="#B18C61" transform="translate(171,160)"/>
<path d="M0 0 C5.75 3.625 5.75 3.625 8 7 C7.625 9.1875 7.625 9.1875 7 11 C3 5.25 3 5.25 3 3 C2.01 2.67 1.02 2.34 0 2 C0 1.34 0 0.68 0 0 Z " fill="#4D2D0F" transform="translate(238,130)"/>
<path d="M0 0 C3.26008643 3.16952847 6.22237877 6.39937989 9 10 C8.01 10.495 8.01 10.495 7 11 C6.4225 10.2575 5.845 9.515 5.25 8.75 C3.27746474 6.33912357 1.23955718 4.15957299 -1 2 C-0.67 1.34 -0.34 0.68 0 0 Z " fill="#43260B" transform="translate(192,249)"/>
<path d="M0 0 C2.9244745 2.63202705 5.02154932 5.60837026 7 9 C6.67 9.99 6.34 10.98 6 12 C0.44419134 4.88610478 0.44419134 4.88610478 0 0 Z " fill="#41220C" transform="translate(103,224)"/>
<path d="M0 0 C1.98 0.99 1.98 0.99 4 2 C4 3.32 4 4.64 4 6 C3.01 6.33 2.02 6.66 1 7 C0 6 0 6 -0.0625 2.9375 C-0.041875 1.968125 -0.02125 0.99875 0 0 Z " fill="#3A240E" transform="translate(235,200)"/>
<path d="M0 0 C0.33 0 0.66 0 1 0 C1.49230769 7.38461538 1.49230769 7.38461538 -1 10.5 C-1.66 10.995 -2.32 11.49 -3 12 C-2.40075776 7.80530429 -1.42500059 3.99000166 0 0 Z " fill="#462A10" transform="translate(202,139)"/>
<path d="M0 0 C2.31 1.98 4.62 3.96 7 6 C6.01 6.66 5.02 7.32 4 8 C1 6 1 6 0.3125 2.875 C0.209375 1.92625 0.10625 0.9775 0 0 Z " fill="#53351C" transform="translate(200,114)"/>
<path d="M0 0 C2.65269897 2.47585238 4.68010103 4.59026101 6 8 C6 8.99 6 9.98 6 11 C5.01 10.67 4.02 10.34 3 10 C1.69519135 6.73797837 0.78933188 3.42043815 0 0 Z " fill="#C5996B" transform="translate(239,107)"/>
<path d="M0 0 C2.31 1.98 4.62 3.96 7 6 C6.01 6.33 5.02 6.66 4 7 C4 6.34 4 5.68 4 5 C2.02 5 0.04 5 -2 5 C-1.01 4.01 -0.02 3.02 1 2 C0.34 1.67 -0.32 1.34 -1 1 C-0.67 0.67 -0.34 0.34 0 0 Z " fill="#413123" transform="translate(228,71)"/>
<path d="M0 0 C2.97 1.98 2.97 1.98 6 4 C4.68 4.99 3.36 5.98 2 7 C0.4375 5.1875 0.4375 5.1875 -1 3 C-0.67 2.01 -0.34 1.02 0 0 Z " fill="#413123" transform="translate(214,58)"/>
<path d="M0 0 C1.32 0 2.64 0 4 0 C3.67 1.65 3.34 3.3 3 5 C1.68 4.67 0.36 4.34 -1 4 C-0.67 2.68 -0.34 1.36 0 0 Z " fill="#BA9168" transform="translate(229,205)"/>
<path d="M0 0 C0.66 0 1.32 0 2 0 C3.12435141 3.37305424 2.75339064 5.5678871 2 9 C1.9629721 10.6662553 1.95240038 12.33401319 2 14 C0.09391902 10.78817851 -0.22266247 8.46117397 -0.125 4.75 C-0.09792969 3.41195312 -0.09792969 3.41195312 -0.0703125 2.046875 C-0.04710938 1.37140625 -0.02390625 0.6959375 0 0 Z " fill="#875B39" transform="translate(88,176)"/>
<path d="M0 0 C1.32 0.99 2.64 1.98 4 3 C3.625 5.4375 3.625 5.4375 3 8 C2.01 8.495 2.01 8.495 1 9 C1.33 7.35 1.66 5.7 2 4 C1.34 4 0.68 4 0 4 C0 2.68 0 1.36 0 0 Z " fill="#BB8F5A" transform="translate(234,135)"/>
<path d="M0 0 C0.99 0 1.98 0 3 0 C7 4.34285714 7 4.34285714 7 7 C5.1875 6.875 5.1875 6.875 3 6 C1.25 2.9375 1.25 2.9375 0 0 Z " fill="#C49665" transform="translate(164,131)"/>
<path d="M0 0 C1.04449911 3.13349732 0.93423645 3.98968256 0 7 C-1.65 5.35 -3.3 3.7 -5 2 C-2 0 -2 0 0 0 Z " fill="#331F09" transform="translate(235,128)"/>
<path d="M0 0 C2.32039314 3.48058971 2 3.98142912 2 8 C0.02 6.35 -1.96 4.7 -4 3 C-2.68 2.67 -1.36 2.34 0 2 C0 1.34 0 0.68 0 0 Z " fill="#432B12" transform="translate(198,116)"/>
<path d="M0 0 C1.18414294 3.55242882 0.69535532 4.69830562 -0.4375 8.1875 C-0.72496094 9.08855469 -1.01242188 9.98960938 -1.30859375 10.91796875 C-1.53675781 11.60503906 -1.76492187 12.29210937 -2 13 C-3.046875 11.15625 -3.046875 11.15625 -4 9 C-3.25 6.5 -3.25 6.5 -2 4 C-1.62875 3.236875 -1.2575 2.47375 -0.875 1.6875 C-0.58625 1.130625 -0.2975 0.57375 0 0 Z " fill="#986643" transform="translate(151,91)"/>
<path d="M0 0 C0.66 0 1.32 0 2 0 C2 0.66 2 1.32 2 2 C2.66 2.33 3.32 2.66 4 3 C0.77208445 5.1519437 -0.28400809 5.20086443 -4 5 C-3.67 4.01 -3.34 3.02 -3 2 C-2.01 2 -1.02 2 0 2 C0 1.34 0 0.68 0 0 Z " fill="#BE8E5F" transform="translate(210,259)"/>
<path d="M0 0 C1.04449911 3.13349732 0.93423645 3.98968256 0 7 C-1.32 6.67 -2.64 6.34 -4 6 C-3.67 4.68 -3.34 3.36 -3 2 C-2.01 2 -1.02 2 0 2 C0 1.34 0 0.68 0 0 Z " fill="#432917" transform="translate(142,247)"/>
<path d="M0 0 C0.66 0.33 1.32 0.66 2 1 C2.625 3.5625 2.625 3.5625 3 6 C1.68 6.99 0.36 7.98 -1 9 C-0.67 6.03 -0.34 3.06 0 0 Z " fill="#8E6244" transform="translate(153,215)"/>
<path d="M0 0 C0.99 0.33 1.98 0.66 3 1 C3 3.31 3 5.62 3 8 C2.01 7.67 1.02 7.34 0 7 C0 4.69 0 2.38 0 0 Z " fill="#352216" transform="translate(223,203)"/>
<path d="M0 0 C0.66 0.99 1.32 1.98 2 3 C0.35 4.98 -1.3 6.96 -3 9 C-3.33 7.68 -3.66 6.36 -4 5 C-3.34 5 -2.68 5 -2 5 C-1.34 3.35 -0.68 1.7 0 0 Z " fill="#BD905D" transform="translate(233,176)"/>
<path d="M0 0 C0.66 0 1.32 0 2 0 C2.66 1.65 3.32 3.3 4 5 C3.01 5.66 2.02 6.32 1 7 C0.34 7.99 -0.32 8.98 -1 10 C-0.67 6.7 -0.34 3.4 0 0 Z " fill="#D49F65" transform="translate(200,98)"/>
<path d="M0 0 C0.99 0.33 1.98 0.66 3 1 C2.67 2.32 2.34 3.64 2 5 C0.68 4.67 -0.64 4.34 -2 4 C-2 3.01 -2 2.02 -2 1 C-1.34 0.67 -0.68 0.34 0 0 Z " fill="#AC8961" transform="translate(209,90)"/>
<path d="M0 0 C2.64752004 2.57784846 4.94432065 4.91648098 7 8 C6.01 8 5.02 8 4 8 C4 7.34 4 6.68 4 6 C2.68 5.34 1.36 4.68 0 4 C0 2.68 0 1.36 0 0 Z " fill="#BA8F5F" transform="translate(222,82)"/>
<path d="M0 0 C-1.65 1.65 -3.3 3.3 -5 5 C-5.33 3.35 -5.66 1.7 -6 0 C-3 -1 -3 -1 0 0 Z " fill="#423425" transform="translate(158,256)"/>
<path d="M0 0 C-0.66 1.32 -1.32 2.64 -2 4 C-4.97 3.67 -7.94 3.34 -11 3 C-11 2.67 -11 2.34 -11 2 C-9.5422647 1.664061 -8.08378894 1.33133376 -6.625 1 C-5.40683594 0.7215625 -5.40683594 0.7215625 -4.1640625 0.4375 C-2 0 -2 0 0 0 Z " fill="#BC8E5A" transform="translate(239,214)"/>
<path d="M0 0 C2.375 0.6875 2.375 0.6875 5 2 C6.3125 4.625 6.3125 4.625 7 7 C5.68 6.67 4.36 6.34 3 6 C3 5.01 3 4.02 3 3 C2.34 3 1.68 3 1 3 C0.67 2.01 0.34 1.02 0 0 Z " fill="#45290F" transform="translate(195,192)"/>
<path d="M0 0 C3.375 0.3125 3.375 0.3125 7 1 C7.66 1.99 8.32 2.98 9 4 C7 4 5 4 3 4 C3 3.01 3 2.02 3 1 C2.01 0.67 1.02 0.34 0 0 Z " fill="#482C12" transform="translate(193,134)"/>
<path d="M0 0 C1.32 0.33 2.64 0.66 4 1 C4 3.97 4 6.94 4 10 C3.67 10 3.34 10 3 10 C3 8.02 3 6.04 3 4 C2.34 4 1.68 4 1 4 C0.67 2.68 0.34 1.36 0 0 Z " fill="#3B2006" transform="translate(226,106)"/>
<path d="M0 0 C0.66 0.33 1.32 0.66 2 1 C2.40729228 3.32156597 2.74438677 5.6568787 3 8 C2.566875 7.505 2.13375 7.01 1.6875 6.5 C0.00259517 4.66781808 0.00259517 4.66781808 -3 5 C-2.01 3.35 -1.02 1.7 0 0 Z " fill="#B68B61" transform="translate(186,89)"/>
<path d="M0 0 C1.5 1.3125 1.5 1.3125 3 3 C3 3.99 3 4.98 3 6 C2.34 6 1.68 6 1 6 C0.67 6.99 0.34 7.98 0 9 C-0.66 8.34 -1.32 7.68 -2 7 C-1.01 5.68 -0.02 4.36 1 3 C0.34 2.67 -0.32 2.34 -1 2 C-0.67 1.34 -0.34 0.68 0 0 Z " fill="#885E3A" transform="translate(160,228)"/>
<path d="M0 0 C3 1 3 1 4.75 3.375 C6 6 6 6 5 9 C4.16396622 7.68921847 3.3312426 6.37632511 2.5 5.0625 C2.0359375 4.33160156 1.571875 3.60070312 1.09375 2.84765625 C0 1 0 1 0 0 Z " fill="#BB9062" transform="translate(174,224)"/>
<path d="M0 0 C0.99 0.33 1.98 0.66 3 1 C3 2.32 3 3.64 3 5 C1.68 5 0.36 5 -1 5 C-0.67 3.35 -0.34 1.7 0 0 Z " fill="#BB9166" transform="translate(175,124)"/>
<path d="M0 0 C2.31 1.98 4.62 3.96 7 6 C6.01 6.33 5.02 6.66 4 7 C3.34 6.34 2.68 5.68 2 5 C1.34 4.67 0.68 4.34 0 4 C0 2.68 0 1.36 0 0 Z " fill="#CC9D6B" transform="translate(192,117)"/>
<path d="M0 0 C1.65 1.65 3.3 3.3 5 5 C3 5 1 5 -1 5 C-1.33 4.01 -1.66 3.02 -2 2 C-1.34 2 -0.68 2 0 2 C0 1.34 0 0.68 0 0 Z " fill="#3D2E1D" transform="translate(222,65)"/>
<path d="M0 0 C0.99 0.33 1.98 0.66 3 1 C2.67 1.99 2.34 2.98 2 4 C1.34 4 0.68 4 0 4 C0 4.66 0 5.32 0 6 C-0.66 6 -1.32 6 -2 6 C-1.34 4.02 -0.68 2.04 0 0 Z " fill="#8E6040" transform="translate(144,246)"/>
<path d="M0 0 C0.33 0.66 0.66 1.32 1 2 C1.66 2 2.32 2 3 2 C3.66 3.98 4.32 5.96 5 8 C4.01 8.495 4.01 8.495 3 9 C1.68 6.36 0.36 3.72 -1 1 C-0.67 0.67 -0.34 0.34 0 0 Z " fill="#BF9665" transform="translate(169,213)"/>
<path d="M0 0 C0.66 0.33 1.32 0.66 2 1 C1.75 2.875 1.75 2.875 1 5 C-1.0625 6.25 -1.0625 6.25 -3 7 C-1.125 1.125 -1.125 1.125 0 0 Z " fill="#31200E" transform="translate(86,204)"/>
<path d="M0 0 C0.33 0 0.66 0 1 0 C1.12375 1.093125 1.2475 2.18625 1.375 3.3125 C1.75464801 7.07381802 1.75464801 7.07381802 4 10 C2.68 9.67 1.36 9.34 0 9 C-0.84454356 5.62182575 -1.10844919 3.32534757 0 0 Z " fill="#B4895A" transform="translate(163,160)"/>
<path d="M0 0 C1.98 0.495 1.98 0.495 4 1 C4 1.99 4 2.98 4 4 C2.35 3.67 0.7 3.34 -1 3 C-0.67 2.01 -0.34 1.02 0 0 Z " fill="#BB9266" transform="translate(221,154)"/>
<path d="M0 0 C0.99 0 1.98 0 3 0 C3 2.31 3 4.62 3 7 C2.34 7 1.68 7 1 7 C0.67 4.69 0.34 2.38 0 0 Z " fill="#BD9162" transform="translate(184,139)"/>
<path d="M0 0 C0.66 0 1.32 0 2 0 C1.01 3.96 0.02 7.92 -1 12 C-2.05413042 7.78347832 -1.79607654 5.21920566 -1 1 C-0.67 0.67 -0.34 0.34 0 0 Z " fill="#7B5536" transform="translate(159,65)"/>
</svg>
